<svg width="640" height="480" viewBox="0 0 640 480" fill="none" xmlns="http://www.w3.org/2000/svg">
<rect width="640" height="480" fill="#7DF7FF"/>
<rect x="430" y="334" width="152" height="56" rx="20" fill="#C4C4C4"/>
<path d="M464.108 369H462.223V362.428H455.055V369H453.18V354.781H455.055V360.895H462.223V354.781H464.108V369ZM466.676 363.619C466.676 362.584 466.878 361.653 467.282 360.826C467.692 359.999 468.258 359.361 468.981 358.912C469.71 358.463 470.54 358.238 471.471 358.238C472.91 358.238 474.072 358.736 474.958 359.732C475.85 360.729 476.296 362.053 476.296 363.707V363.834C476.296 364.863 476.097 365.787 475.7 366.607C475.309 367.421 474.746 368.056 474.01 368.512C473.281 368.967 472.441 369.195 471.491 369.195C470.059 369.195 468.896 368.697 468.005 367.701C467.119 366.705 466.676 365.387 466.676 363.746V363.619ZM468.493 363.834C468.493 365.006 468.763 365.947 469.303 366.656C469.85 367.366 470.579 367.721 471.491 367.721C472.409 367.721 473.138 367.363 473.678 366.646C474.219 365.924 474.489 364.915 474.489 363.619C474.489 362.46 474.212 361.523 473.659 360.807C473.112 360.084 472.383 359.723 471.471 359.723C470.579 359.723 469.86 360.077 469.313 360.787C468.766 361.497 468.493 362.512 468.493 363.834ZM487.917 366.51L489.948 358.434H491.755L488.678 369H487.214L484.645 360.992L482.145 369H480.68L477.614 358.434H479.411L481.491 366.344L483.952 358.434H485.407L487.917 366.51ZM508.278 356.324H503.708V369H501.842V356.324H497.282V354.781H508.278V356.324ZM508.649 363.619C508.649 362.584 508.851 361.653 509.255 360.826C509.665 359.999 510.231 359.361 510.954 358.912C511.683 358.463 512.513 358.238 513.444 358.238C514.883 358.238 516.045 358.736 516.93 359.732C517.822 360.729 518.268 362.053 518.268 363.707V363.834C518.268 364.863 518.07 365.787 517.673 366.607C517.282 367.421 516.719 368.056 515.983 368.512C515.254 368.967 514.414 369.195 513.464 369.195C512.031 369.195 510.869 368.697 509.977 367.701C509.092 366.705 508.649 365.387 508.649 363.746V363.619ZM510.465 363.834C510.465 365.006 510.736 365.947 511.276 366.656C511.823 367.366 512.552 367.721 513.464 367.721C514.382 367.721 515.111 367.363 515.651 366.646C516.191 365.924 516.462 364.915 516.462 363.619C516.462 362.46 516.185 361.523 515.632 360.807C515.085 360.084 514.355 359.723 513.444 359.723C512.552 359.723 511.833 360.077 511.286 360.787C510.739 361.497 510.465 362.512 510.465 363.834ZM527.653 363.434V369H525.778V354.781H531.022C532.578 354.781 533.796 355.178 534.674 355.973C535.56 356.767 536.003 357.818 536.003 359.127C536.003 360.507 535.57 361.572 534.704 362.32C533.844 363.062 532.611 363.434 531.003 363.434H527.653ZM527.653 361.9H531.022C532.025 361.9 532.793 361.666 533.327 361.197C533.861 360.722 534.128 360.038 534.128 359.146C534.128 358.3 533.861 357.623 533.327 357.115C532.793 356.607 532.061 356.344 531.13 356.324H527.653V361.9ZM540.075 369H538.268V354H540.075V369ZM549.499 369C549.395 368.792 549.31 368.421 549.245 367.887C548.405 368.759 547.402 369.195 546.237 369.195C545.195 369.195 544.339 368.902 543.669 368.316C543.005 367.724 542.673 366.975 542.673 366.07C542.673 364.97 543.089 364.117 543.923 363.512C544.762 362.9 545.941 362.594 547.458 362.594H549.215V361.764C549.215 361.132 549.027 360.631 548.649 360.26C548.271 359.882 547.715 359.693 546.979 359.693C546.335 359.693 545.794 359.856 545.358 360.182C544.922 360.507 544.704 360.901 544.704 361.363H542.887C542.887 360.836 543.073 360.328 543.444 359.84C543.822 359.345 544.329 358.954 544.967 358.668C545.612 358.382 546.318 358.238 547.087 358.238C548.304 358.238 549.258 358.544 549.948 359.156C550.638 359.762 550.996 360.598 551.022 361.666V366.529C551.022 367.499 551.146 368.271 551.393 368.844V369H549.499ZM546.501 367.623C547.067 367.623 547.604 367.477 548.112 367.184C548.62 366.891 548.988 366.51 549.215 366.041V363.873H547.799C545.586 363.873 544.479 364.521 544.479 365.816C544.479 366.383 544.668 366.826 545.046 367.145C545.423 367.464 545.908 367.623 546.501 367.623ZM557.155 366.354L559.616 358.434H561.549L557.301 370.631C556.644 372.389 555.599 373.268 554.167 373.268L553.825 373.238L553.151 373.111V371.646L553.639 371.686C554.251 371.686 554.727 371.562 555.065 371.314C555.41 371.067 555.693 370.615 555.915 369.957L556.315 368.883L552.546 358.434H554.518L557.155 366.354Z" fill="#FEE500"/>
<rect x="430" y="249" width="151" height="56" rx="20" fill="#C4C4C4"/>
<path d="M481.564 277.662C479.956 277.2 478.785 276.633 478.049 275.963C477.32 275.286 476.955 274.452 476.955 273.463C476.955 272.343 477.401 271.419 478.293 270.689C479.191 269.954 480.357 269.586 481.789 269.586C482.766 269.586 483.635 269.775 484.396 270.152C485.165 270.53 485.757 271.051 486.174 271.715C486.597 272.379 486.809 273.105 486.809 273.893H484.924C484.924 273.033 484.65 272.359 484.104 271.871C483.557 271.376 482.785 271.129 481.789 271.129C480.865 271.129 480.142 271.334 479.621 271.744C479.107 272.148 478.85 272.711 478.85 273.434C478.85 274.013 479.094 274.505 479.582 274.908C480.077 275.305 480.913 275.67 482.092 276.002C483.277 276.334 484.201 276.702 484.865 277.105C485.536 277.503 486.031 277.968 486.35 278.502C486.675 279.036 486.838 279.664 486.838 280.387C486.838 281.539 486.389 282.464 485.49 283.16C484.592 283.85 483.391 284.195 481.887 284.195C480.91 284.195 479.999 284.01 479.152 283.639C478.306 283.261 477.652 282.747 477.189 282.096C476.734 281.445 476.506 280.706 476.506 279.879H478.391C478.391 280.738 478.706 281.419 479.338 281.92C479.976 282.415 480.826 282.662 481.887 282.662C482.876 282.662 483.635 282.46 484.162 282.057C484.689 281.653 484.953 281.103 484.953 280.406C484.953 279.71 484.709 279.173 484.221 278.795C483.732 278.411 482.847 278.033 481.564 277.662ZM499.074 271.324H494.504V284H492.639V271.324H488.078V269.781H499.074V271.324ZM508.254 280.289H502.297L500.959 284H499.025L504.455 269.781H506.096L511.535 284H509.611L508.254 280.289ZM502.863 278.746H507.697L505.275 272.096L502.863 278.746ZM518.664 278.248H515.324V284H513.439V269.781H518.146C519.748 269.781 520.979 270.146 521.838 270.875C522.704 271.604 523.137 272.665 523.137 274.059C523.137 274.944 522.896 275.715 522.414 276.373C521.939 277.031 521.275 277.522 520.422 277.848L523.762 283.883V284H521.75L518.664 278.248ZM515.324 276.715H518.205C519.136 276.715 519.875 276.474 520.422 275.992C520.975 275.51 521.252 274.866 521.252 274.059C521.252 273.18 520.988 272.506 520.461 272.037C519.94 271.568 519.185 271.331 518.195 271.324H515.324V276.715ZM534.816 271.324H530.246V284H528.381V271.324H523.82V269.781H534.816V271.324Z" fill="#FEE500"/>
<rect x="94" y="355" width="20" height="100" rx="10" fill="black"/>
<circle cx="104" cy="305" r="40" fill="#FF7E96"/>
<circle cx="366" cy="68" r="20" fill="#FF7E96"/>
<circle cx="405" cy="145" r="10" fill="#FF7E96"/>
<circle cx="524" cy="110" r="80" fill="#FF7E96"/>
<rect y="430" width="640" height="50" fill="#C4C4C4"/>
<path d="M60.5492 162.705L61.4218 159.629L59.8705 155.647L57.0527 154.221L43.2812 152.031L39.4333 147.915L38.2961 143.527L39.603 139.118L45.1174 134.762L52.2155 132.791L54.2698 131.839L54.7462 134.271L56.9419 140.163L55.4044 141.131L52.0646 135.604L46.4795 136.82L42.5477 140.192L42.5938 143.546L44.9816 147.019L58.6137 149.107L63.2156 151.365L65.9899 158.426L64.0928 164.02L57.9876 167.877L49.282 169.922L47.0471 170.377L46.7677 168.487L45.023 162.43L46.5606 161.462L49.4493 167.153L55.2969 166.098L60.5492 162.705ZM98.6475 149.502L102.449 149.14L102.798 150.801L97.2131 152.578L91.1158 155.053L90.6314 153.441L93.9115 151.226L89.6016 137.981L81.7614 140.579L73.5892 143.809L78.6823 156.82L82.6026 156.364L82.759 158.197L77.3668 159.802L71.3474 162.35L71.0106 160.583L74.262 158.429L69.3284 144.032L64.215 131.386L60.4135 131.748L59.9824 129.862L65.6494 128.31L71.6646 125.61L72.2311 127.447L68.951 129.662L72.6863 141.328L80.9898 138.459L88.6987 135.5L84.0613 124.163L80.2598 124.525L79.8287 122.638L85.4957 121.087L91.5109 118.386L92.0774 120.224L88.7973 122.439L93.0087 135.413L98.6475 149.502ZM113.688 110.059L121.878 111.369L127.173 115.674L130.829 122.771L131.943 132.99L128.058 140.841L121.76 144.87L113.862 145.905L106.168 142.168L103.136 138.47L99.5741 130.367L99.363 123.753L100.952 118.015L106.561 112.653L113.688 110.059ZM120.985 142.598L126.024 139.742L127.309 131.204L125.945 124.651L123.102 118.943L119.004 114.561L112.893 112.647L107.222 115.171L104.431 120.273L104.259 123.452L104.634 127.708L108.065 136.574L114.169 142.116L120.985 142.598ZM147.649 97.6986L155.839 99.0085L161.134 103.313L164.79 110.41L165.905 120.63L162.019 128.48L155.721 132.509L147.823 133.545L140.129 129.807L137.097 126.109L133.535 118.006L133.324 111.392L134.914 105.654L140.522 100.292L147.649 97.6986ZM154.946 130.237L159.985 127.381L161.27 118.843L159.907 112.29L157.063 106.583L152.965 102.2L146.854 100.287L141.183 102.81L138.392 107.913L138.22 111.091L138.595 115.348L142.026 124.213L148.13 129.755L154.946 130.237ZM166.167 91.7248L183.217 85.5192L188.33 83.1473L188.786 86.5058L190.584 92.2876L188.558 93.1781L185.489 86.9907L177.448 89.4577L182.558 104.761L185.915 113.142L187.618 117.12L191.501 116.983L191.76 118.677L186.093 120.228L180.078 122.929L179.594 121.317L182.898 118.888L181.252 114.226L176.906 101.301L172.712 91.1815L165.372 94.3127L166.998 101.025L164.874 101.645L162.535 96.0605L160.725 93.1945L166.167 91.7248ZM207.777 105.134L209.541 109.14L213.162 108.844L213.593 110.73L207.926 112.282L201.911 114.982L201.345 113.145L204.399 111.012L202.942 106.025L199.74 96.668L196.371 87.8315L194.594 83.9321L190.973 84.2284L190.542 82.3421L196.209 80.7903L202.224 78.0901L202.791 79.9272L199.691 82.077L200.804 86.116L203.923 95.2479L207.777 105.134ZM231.836 67.8231L236.634 65.5662L237.2 67.4032L234.006 69.4341L235.028 72.9442L245.19 99.7407L244.001 100.684L242.742 99.6102L226.831 89.7193L216.7 83.4971L213.648 80.7258L213.558 80.7587L215.089 84.5434L220.999 100.781L222.439 104.599L226.163 104.163L226.578 106.004L221.677 107.277L217.241 109.402L216.674 107.565L219.479 105.727L218.428 101.717L210.24 78.2376L206.213 78.6817L205.782 76.7954L211.449 75.2435L213.704 74.4227L215.985 76.7595L233.733 88.3312L239.754 93.0865L239.844 93.0537L238.223 88.74L232.687 73.9496L231.164 70.4684L227.593 70.9L227.161 69.0137L231.836 67.8231ZM271.709 86.0022L268.319 77.5307L264.517 77.8927L264.086 76.0064L269.934 74.3889L275.317 71.9186L276.2 73.6407L273.055 75.8069L276.154 85.3038L272.345 88.7332L264.136 92.8448L254.134 91.8881L248.814 87.2351L245.794 81.7449L244.119 77.1442L244.404 70.3489L248.22 62.7282L253.775 58.7651L258.827 56.9264L266.369 56.1737L266.394 58.7696L267.749 64.4572L266.084 65.2163L262.748 59.2792L259.099 59.637L253.686 61.6071L249.022 69.8431L250.226 77.7821L253.352 84.4083L257.725 88.2824L263.762 90.2736L270.885 86.9662L271.709 86.0022ZM88.111 216.677L84.7211 208.205L80.9197 208.567L80.4885 206.681L86.3359 205.064L91.7197 202.593L92.6019 204.315L89.4572 206.482L92.5562 215.978L88.7474 219.408L80.5386 223.52L70.5362 222.563L65.2159 217.91L62.196 212.42L60.5215 207.819L60.8065 201.024L64.6223 193.403L70.1778 189.44L75.2296 187.601L82.771 186.848L82.7964 189.444L84.1513 195.132L82.4866 195.891L79.1508 189.954L75.5011 190.312L70.0884 192.282L65.424 200.518L66.6279 208.457L69.7548 215.083L74.1275 218.957L80.1647 220.948L87.287 217.641L88.111 216.677ZM99.656 183.257L99.0683 178.976L101.147 177.81L113.536 192.201L124.411 203.976L128.528 203.499L128.959 205.385L123.292 206.937L116.601 209.883L116.034 208.046L119.404 205.798L113.128 198.377L107.604 200.183L102.483 202.251L102.67 211.889L106.427 211.543L106.858 213.429L101.191 214.981L97.2054 216.943L96.6389 215.105L99.8288 212.923L100.111 197.138L99.656 183.257ZM101.539 184.359L102.392 199.475L106.833 198.063L111.323 196.225L105.809 190.058L101.629 184.327L101.539 184.359ZM130.661 197.206L124.015 173.472L119.988 173.916L119.639 172.255L125.224 170.478L128.155 169.41L128.484 170.313L141.906 185.297L146.087 190.467L146.177 190.435L145.945 184.185L146.571 163.729L146.243 162.827L148.949 161.842L155.046 159.368L155.531 160.979L152.115 163.244L162.308 185.074L164.795 189.379L168.158 189.075L168.507 190.736L162.922 192.513L156.824 194.988L156.34 193.376L159.308 191.427L157.917 187.183L155.048 180.565L148.86 167.493L148.635 167.575L148.879 173.718L148.454 195.429L149.931 197.241L148.095 198.931L146.466 197.123L130.787 180.15L127.075 175.423L126.894 175.488L131.25 190.402L133.22 196.377L134.738 200.268L138.359 199.972L138.708 201.632L133.874 203.085L129.13 205.068L128.645 203.456L131.429 201.421L130.661 197.206ZM173.741 171.719L178.895 184.758L191.816 179.698L190.985 173.206L192.712 173.038L194.928 178.565L196.147 180.931L190.525 182.466L177.264 187.293L171.248 189.993L170.764 188.382L173.962 185.941L169.373 171.929L164.112 158.877L160.064 159.125L159.715 157.464L165.546 155.801L178.537 151.073L182.748 149.03L183.146 151.388L185.207 157.329L183.714 158.281L180.358 152.709L168.635 156.567L172.887 169.373L181.584 165.901L180.881 161.304L182.899 161.234L184.319 166.54L186.757 171.834L184.854 172.22L182.372 168.066L173.741 171.719Z" fill="black"/>
<path d="M84 390C84 378.954 92.9543 370 104 370V370C115.046 370 124 378.954 124 390V430H84V390Z" fill="#E62626"/>
</svg>
