<svg width="114" height="56" viewBox="0 0 114 56" fill="none" xmlns="http://www.w3.org/2000/svg">
<rect width="114" height="56" rx="20" fill="#C4C4C4"/>
<path d="M22.2441 29.248H18.9043V35H17.0195V20.7812H21.7266C23.3281 20.7812 24.5586 21.1458 25.418 21.875C26.2839 22.6042 26.7168 23.6654 26.7168 25.0586C26.7168 25.944 26.4759 26.7155 25.9941 27.373C25.5189 28.0306 24.8548 28.5221 24.002 28.8477L27.3418 34.8828V35H25.3301L22.2441 29.248ZM18.9043 27.7148H21.7852C22.7161 27.7148 23.4551 27.474 24.002 26.9922C24.5553 26.5104 24.832 25.8659 24.832 25.0586C24.832 24.1797 24.5684 23.5059 24.041 23.0371C23.5202 22.5684 22.765 22.3307 21.7754 22.3242H18.9043V27.7148ZM37.3906 28.4277H31.2285V33.4668H38.3867V35H29.3535V20.7812H38.2891V22.3242H31.2285V26.8945H37.3906V28.4277ZM44.9102 28.6621C43.3021 28.1999 42.1302 27.6335 41.3945 26.9629C40.6654 26.2858 40.3008 25.4525 40.3008 24.4629C40.3008 23.3431 40.7467 22.4186 41.6387 21.6895C42.5371 20.9538 43.7025 20.5859 45.1348 20.5859C46.1113 20.5859 46.9805 20.7747 47.7422 21.1523C48.5104 21.5299 49.1029 22.0508 49.5195 22.7148C49.9427 23.3789 50.1543 24.1048 50.1543 24.8926H48.2695C48.2695 24.0332 47.9961 23.3594 47.4492 22.8711C46.9023 22.3763 46.1309 22.1289 45.1348 22.1289C44.2103 22.1289 43.4876 22.334 42.9668 22.7441C42.4525 23.1478 42.1953 23.7109 42.1953 24.4336C42.1953 25.013 42.4395 25.5046 42.9277 25.9082C43.4225 26.3053 44.2591 26.6699 45.4375 27.002C46.6224 27.334 47.5469 27.7018 48.2109 28.1055C48.8815 28.5026 49.3763 28.9681 49.6953 29.502C50.0208 30.0358 50.1836 30.6641 50.1836 31.3867C50.1836 32.5391 49.7344 33.4635 48.8359 34.1602C47.9375 34.8503 46.7363 35.1953 45.2324 35.1953C44.2559 35.1953 43.3444 35.0098 42.498 34.6387C41.6517 34.2611 40.9974 33.7467 40.5352 33.0957C40.0794 32.4447 39.8516 31.7057 39.8516 30.8789H41.7363C41.7363 31.7383 42.0521 32.4186 42.6836 32.9199C43.3216 33.4147 44.1712 33.6621 45.2324 33.6621C46.222 33.6621 46.9805 33.4603 47.5078 33.0566C48.0352 32.653 48.2988 32.1029 48.2988 31.4062C48.2988 30.7096 48.0547 30.1725 47.5664 29.7949C47.0781 29.4108 46.1927 29.0332 44.9102 28.6621ZM62.4199 22.3242H57.8496V35H55.9844V22.3242H51.4238V20.7812H62.4199V22.3242ZM71.5996 31.2891H65.6426L64.3047 35H62.3711L67.8008 20.7812H69.4414L74.8809 35H72.957L71.5996 31.2891ZM66.209 29.7461H71.043L68.6211 23.0957L66.209 29.7461ZM82.0098 29.248H78.6699V35H76.7852V20.7812H81.4922C83.0938 20.7812 84.3242 21.1458 85.1836 21.875C86.0495 22.6042 86.4824 23.6654 86.4824 25.0586C86.4824 25.944 86.2415 26.7155 85.7598 27.373C85.2845 28.0306 84.6204 28.5221 83.7676 28.8477L87.1074 34.8828V35H85.0957L82.0098 29.248ZM78.6699 27.7148H81.5508C82.4818 27.7148 83.2207 27.474 83.7676 26.9922C84.321 26.5104 84.5977 25.8659 84.5977 25.0586C84.5977 24.1797 84.334 23.5059 83.8066 23.0371C83.2858 22.5684 82.5306 22.3307 81.541 22.3242H78.6699V27.7148ZM98.1621 22.3242H93.5918V35H91.7266V22.3242H87.166V20.7812H98.1621V22.3242Z" fill="#FEE500"/>
</svg>
