<svg width="114" height="56" viewBox="0 0 114 56" fill="none" xmlns="http://www.w3.org/2000/svg">
<rect width="114" height="56" rx="20" fill="#C4C4C4"/>
<path d="M48.1055 28.3496C48.1055 29.7233 47.8874 30.9082 47.4512 31.9043C47.015 32.8939 46.403 33.6686 45.6152 34.2285L48.1543 36.2207L46.875 37.4023L43.877 35.0195C43.4082 35.1367 42.9134 35.1953 42.3926 35.1953C41.2728 35.1953 40.2799 34.9219 39.4141 34.375C38.5482 33.8216 37.8743 33.0371 37.3926 32.0215C36.9173 30.9993 36.6732 29.8177 36.6602 28.4766V27.4512C36.6602 26.084 36.8978 24.8763 37.373 23.8281C37.8483 22.7799 38.5189 21.9792 39.3848 21.4258C40.2572 20.8659 41.2533 20.5859 42.373 20.5859C43.5189 20.5859 44.5247 20.8626 45.3906 21.416C46.263 21.9694 46.9336 22.7669 47.4023 23.8086C47.8711 24.8438 48.1055 26.0547 48.1055 27.4414V28.3496ZM46.2305 27.4316C46.2305 25.7585 45.8952 24.4694 45.2246 23.5645C44.5605 22.653 43.61 22.1973 42.373 22.1973C41.1947 22.1973 40.2637 22.6497 39.5801 23.5547C38.903 24.4531 38.5547 25.7031 38.5352 27.3047V28.3496C38.5352 29.9772 38.8737 31.2598 39.5508 32.1973C40.2344 33.1348 41.1816 33.6035 42.3926 33.6035C43.6035 33.6035 44.541 33.1641 45.2051 32.2852C45.8691 31.3997 46.2109 30.1335 46.2305 28.4863V27.4316ZM61.0059 20.7812V30.4492C60.9993 31.7904 60.5762 32.8874 59.7363 33.7402C58.903 34.5931 57.7702 35.0716 56.3379 35.1758L55.8398 35.1953C54.2839 35.1953 53.0436 34.7754 52.1191 33.9355C51.1947 33.0957 50.7259 31.9401 50.7129 30.4688V20.7812H52.5684V30.4102C52.5684 31.4388 52.8516 32.2396 53.418 32.8125C53.9844 33.3789 54.7917 33.6621 55.8398 33.6621C56.901 33.6621 57.7116 33.3789 58.2715 32.8125C58.8379 32.2461 59.1211 31.4486 59.1211 30.4199V20.7812H61.0059ZM65.9766 35H64.1016V20.7812H65.9766V35ZM78.9453 22.3242H74.375V35H72.5098V22.3242H67.9492V20.7812H78.9453V22.3242Z" fill="#FEE500"/>
</svg>
