<svg width="640" height="480" viewBox="0 0 640 480" fill="none" xmlns="http://www.w3.org/2000/svg">
<rect width="640" height="480" fill="#7DF7FF"/>
<rect x="54" y="48" width="532" height="385" rx="30" fill="white"/>
<rect x="152" y="276" width="20" height="100" rx="10" fill="black"/>
<rect x="373" y="320" width="151" height="56" rx="20" fill="#C4C4C4"/>
<path d="M424.564 348.662C422.956 348.2 421.785 347.633 421.049 346.963C420.32 346.286 419.955 345.452 419.955 344.463C419.955 343.343 420.401 342.419 421.293 341.689C422.191 340.954 423.357 340.586 424.789 340.586C425.766 340.586 426.635 340.775 427.396 341.152C428.165 341.53 428.757 342.051 429.174 342.715C429.597 343.379 429.809 344.105 429.809 344.893H427.924C427.924 344.033 427.65 343.359 427.104 342.871C426.557 342.376 425.785 342.129 424.789 342.129C423.865 342.129 423.142 342.334 422.621 342.744C422.107 343.148 421.85 343.711 421.85 344.434C421.85 345.013 422.094 345.505 422.582 345.908C423.077 346.305 423.913 346.67 425.092 347.002C426.277 347.334 427.201 347.702 427.865 348.105C428.536 348.503 429.031 348.968 429.35 349.502C429.675 350.036 429.838 350.664 429.838 351.387C429.838 352.539 429.389 353.464 428.49 354.16C427.592 354.85 426.391 355.195 424.887 355.195C423.91 355.195 422.999 355.01 422.152 354.639C421.306 354.261 420.652 353.747 420.189 353.096C419.734 352.445 419.506 351.706 419.506 350.879H421.391C421.391 351.738 421.706 352.419 422.338 352.92C422.976 353.415 423.826 353.662 424.887 353.662C425.876 353.662 426.635 353.46 427.162 353.057C427.689 352.653 427.953 352.103 427.953 351.406C427.953 350.71 427.709 350.173 427.221 349.795C426.732 349.411 425.847 349.033 424.564 348.662ZM442.074 342.324H437.504V355H435.639V342.324H431.078V340.781H442.074V342.324ZM451.254 351.289H445.297L443.959 355H442.025L447.455 340.781H449.096L454.535 355H452.611L451.254 351.289ZM445.863 349.746H450.697L448.275 343.096L445.863 349.746ZM461.664 349.248H458.324V355H456.439V340.781H461.146C462.748 340.781 463.979 341.146 464.838 341.875C465.704 342.604 466.137 343.665 466.137 345.059C466.137 345.944 465.896 346.715 465.414 347.373C464.939 348.031 464.275 348.522 463.422 348.848L466.762 354.883V355H464.75L461.664 349.248ZM458.324 347.715H461.205C462.136 347.715 462.875 347.474 463.422 346.992C463.975 346.51 464.252 345.866 464.252 345.059C464.252 344.18 463.988 343.506 463.461 343.037C462.94 342.568 462.185 342.331 461.195 342.324H458.324V347.715ZM477.816 342.324H473.246V355H471.381V342.324H466.82V340.781H477.816V342.324Z" fill="#FEE500"/>
<path d="M142 336C142 324.954 150.954 316 162 316V316C173.046 316 182 324.954 182 336V376H142V336Z" fill="#E62626"/>
<path d="M127.824 118.4L127.984 120L129.604 120.4L129.504 121.2L126.864 121L124.184 121.2L124.224 120.4L125.804 120.04L125.904 118.42L125.964 115.18L122.524 109.36L121.324 107.96L119.924 107.6L120.024 106.8L122.644 107L125.444 106.8L125.404 107.6L123.964 107.92L124.544 109.34L126.064 111.92L127.084 113.84H127.164L128.144 112.1L129.864 109.3L130.384 107.84L128.944 107.6L129.044 106.8L131.304 107L133.444 106.8L133.404 107.6L131.944 107.92L130.924 109.34L127.684 114.68L127.824 118.4ZM132.057 117.2V114.58L133.237 112.2L135.497 110.7L138.237 110.6L140.737 112.1L142.037 114.5L141.797 118.16L140.317 120.52L137.217 121.4L134.617 120.9L132.717 119.18L132.057 117.2ZM134.257 113.9L134.157 116.14L134.397 118.46L135.257 119.96L137.377 120.48L139.337 119.62L139.917 116.5L139.717 113.9L138.977 112.24L137.517 111.5L135.517 111.72L134.257 113.9ZM146.461 114.1V118.46L147.001 119.78L148.681 120L150.861 118.7V116.58L150.841 114.08L150.741 112L149.321 112.06L149.221 111.36L151.981 110.82L152.981 111.04L152.841 113.76L152.821 115.36L152.861 116.58V120.18L154.261 120.58L154.161 121.28H151.421L150.961 119.6L148.701 121.26L146.661 121.4L144.821 120.14L144.521 118.54L144.541 114.26L144.341 111.98L142.921 112.04L142.821 111.34L145.581 110.8L146.581 111.02L146.461 114.1ZM166.904 111.74L164.384 111.54L162.584 113.46L162.064 115.54L162.324 117.66L163.604 119.98L166.064 120.38L167.944 119.38L168.304 119.9L166.724 121.16L164.844 121.4L161.984 120.58L160.204 117.68L160.184 114.34L161.544 111.96L163.644 110.86L165.464 110.6L168.524 111L167.924 114.14L167.264 114.24L166.904 111.74ZM172.051 119.88L173.551 120.26L175.571 119.1L175.491 116.4H173.751L172.211 117.02L171.511 118.26L172.051 119.88ZM177.211 117.36L177.351 120.18L178.731 120.38L178.591 121.04L175.811 121.28L175.551 120.1H175.451L173.471 121.28H171.391L169.991 120.26L169.571 118.3L170.451 116.74L172.851 115.7L175.491 115.6L175.411 113.1L175.031 111.86L173.411 111.4L171.471 111.86L171.411 113.98L170.631 114.14L170.111 111.4L172.411 110.72L174.991 110.6L176.551 111.36L177.191 113.08L177.211 117.36ZM189.453 120.02L190.873 120.4L190.773 121.1L188.413 121L185.973 121.1L186.013 120.4L187.333 120L187.473 117.9L187.393 113.54L186.853 112.22L185.153 111.92L182.973 113.04L182.933 113.74L182.813 115.74L182.853 117.68L182.953 120L184.413 120.4L184.313 121.1L181.953 121L179.513 121.1L179.553 120.4L180.873 120L181.013 117.9L180.833 111.98L179.413 112.04L179.313 111.34L182.073 110.8L183.073 111.02L183.013 112.04L185.153 110.74L187.193 110.6L189.033 111.86L189.333 113.46L189.293 117.68L189.453 120.02ZM206.05 120.02L207.47 120.4L207.37 121.1L205.01 121L202.57 121.1L202.61 120.4L203.93 120L204.07 117.9L203.99 113.54L203.45 112.22L201.75 111.92L199.77 112.98L199.73 113.74L199.61 115.74L199.65 117.68L199.75 120L201.21 120.4L201.11 121.1L198.75 121L196.31 121.1L196.35 120.4L197.67 120L197.81 117.9L197.73 114.06L197.63 111.98L196.21 112.04L196.11 111.34L198.87 110.8L199.87 111.02L199.81 111.96L201.75 110.74L203.79 110.6L205.63 111.86L205.73 112.4L207.73 110.74L209.77 110.6L211.61 111.86L211.91 113.46L211.87 117.68L212.03 120.02L213.45 120.4L213.35 121.1L210.99 121L208.55 121.1L208.59 120.4L209.91 120L210.05 117.9L209.97 113.54L209.43 112.22L207.73 111.92L205.89 113.26L205.93 113.46L205.89 117.68L206.05 120.02ZM214.343 117.2V114.58L215.523 112.2L217.783 110.7L220.523 110.6L223.023 112.1L224.323 114.5L224.083 118.16L222.603 120.52L219.503 121.4L216.903 120.9L215.003 119.18L214.343 117.2ZM216.543 113.9L216.443 116.14L216.683 118.46L217.543 119.96L219.663 120.48L221.623 119.62L222.203 116.5L222.003 113.9L221.263 112.24L219.803 111.5L217.803 111.72L216.543 113.9ZM226.776 113.72L225.876 111.96L224.536 111.6L224.636 110.9L227.076 111L229.656 110.9L229.616 111.6L228.356 112L228.676 113.16L229.976 116.5L230.776 119.42H230.836L231.376 117.38L232.956 113.22L233.276 111.94L231.856 111.6L231.956 110.9L233.776 111L235.896 110.9L235.856 111.6L234.616 112L233.756 113.84L231.296 120.42L230.696 121.46L230.036 121.6L226.776 113.72ZM238.354 115.62L238.334 115.8L238.874 118.62L240.454 120.18L242.294 120.38L244.174 119.38L244.534 119.9L242.954 121.16L241.074 121.4L239.114 120.94L237.414 119.52L236.394 116.52L236.734 113.84L237.774 111.96L239.874 110.8L241.634 110.58L243.034 111.02L244.114 112L244.734 113.78L244.754 115.44L244.474 115.66L241.814 115.84L238.354 115.62ZM239.354 112.38L238.574 113.9L238.454 114.8L241.494 114.84L242.874 114.54L242.754 112.68L242.154 111.66L240.874 111.48L239.354 112.38ZM255.443 121.2L254.083 121.4L252.663 120.92L252.023 119.32L252.123 115.6L252.023 112.24L250.643 112.04L250.523 111.34L252.103 110.92L252.823 108.9H253.843L253.783 111.14L256.203 111.22L256.083 112.1L253.983 112.24L253.903 113.16L253.983 119.22L254.383 120.42L256.263 119.92L256.563 120.52L255.443 121.2ZM260.448 108.82L260.388 112.1L262.608 110.74L264.648 110.6L266.488 111.86L266.787 113.46L266.748 117.68L266.908 120.02L268.328 120.4L268.228 121.1L265.868 121L263.428 121.1L263.468 120.4L264.788 120L264.928 117.9L264.848 113.54L264.308 112.22L262.608 111.92L260.368 113.06L260.328 115.74L260.368 117.68L260.428 120L261.888 120.4L261.788 121.1L259.428 121L256.988 121.1L257.028 120.4L258.348 120L258.528 117.9L258.448 109.14L258.308 107.06L256.888 107.12L256.788 106.42L259.548 105.88L260.548 106.1L260.448 108.82ZM271.421 115.62L271.401 115.8L271.941 118.62L273.521 120.18L275.361 120.38L277.241 119.38L277.601 119.9L276.021 121.16L274.141 121.4L272.181 120.94L270.481 119.52L269.461 116.52L269.801 113.84L270.841 111.96L272.941 110.8L274.701 110.58L276.101 111.02L277.181 112L277.801 113.78L277.821 115.44L277.541 115.66L274.881 115.84L271.421 115.62ZM272.421 112.38L271.641 113.9L271.521 114.8L274.561 114.84L275.941 114.54L275.821 112.68L275.221 111.66L273.941 111.48L272.421 112.38ZM290.849 111.74L288.329 111.54L286.529 113.46L286.009 115.54L286.269 117.66L287.549 119.98L290.009 120.38L291.889 119.38L292.249 119.9L290.669 121.16L288.789 121.4L285.929 120.58L284.149 117.68L284.129 114.34L285.489 111.96L287.589 110.86L289.409 110.6L292.469 111L291.869 114.14L291.209 114.24L290.849 111.74ZM296.737 108.82L296.677 112.1L298.897 110.74L300.937 110.6L302.777 111.86L303.077 113.46L303.037 117.68L303.197 120.02L304.617 120.4L304.517 121.1L302.157 121L299.717 121.1L299.757 120.4L301.077 120L301.217 117.9L301.137 113.54L300.597 112.22L298.897 111.92L296.657 113.06L296.617 115.74L296.657 117.68L296.717 120L298.177 120.4L298.077 121.1L295.717 121L293.277 121.1L293.317 120.4L294.637 120L294.817 117.9L294.737 109.14L294.597 107.06L293.177 107.12L293.077 106.42L295.837 105.88L296.837 106.1L296.737 108.82ZM307.95 119.88L309.45 120.26L311.47 119.1L311.39 116.4H309.65L308.11 117.02L307.41 118.26L307.95 119.88ZM313.11 117.36L313.25 120.18L314.63 120.38L314.49 121.04L311.71 121.28L311.45 120.1H311.35L309.37 121.28H307.29L305.89 120.26L305.47 118.3L306.35 116.74L308.75 115.7L311.39 115.6L311.31 113.1L310.93 111.86L309.31 111.4L307.37 111.86L307.31 113.98L306.53 114.14L306.01 111.4L308.31 110.72L310.89 110.6L312.45 111.36L313.09 113.08L313.11 117.36ZM318.892 112.64H318.972L320.212 111.22L321.572 110.62L323.072 111L322.732 113.98L322.032 113.84L321.532 111.78L320.232 112.2L318.812 113.86L318.712 115.74L318.772 117.68L318.852 120L320.852 120.4L320.752 121.1L317.852 121L315.412 121.1L315.452 120.4L316.772 120L316.872 117.9L316.832 114.06L316.732 111.98L315.312 112.04L315.212 111.34L317.972 110.8L318.972 111.02L318.892 112.64ZM326.407 119.88L327.907 120.26L329.927 119.1L329.847 116.4H328.107L326.567 117.02L325.867 118.26L326.407 119.88ZM331.567 117.36L331.707 120.18L333.087 120.38L332.947 121.04L330.167 121.28L329.907 120.1H329.807L327.827 121.28H325.747L324.347 120.26L323.927 118.3L324.807 116.74L327.207 115.7L329.847 115.6L329.767 113.1L329.387 111.86L327.767 111.4L325.827 111.86L325.767 113.98L324.987 114.14L324.467 111.4L326.767 110.72L329.347 110.6L330.907 111.36L331.547 113.08L331.567 117.36ZM340.869 111.74L338.349 111.54L336.549 113.46L336.029 115.54L336.289 117.66L337.569 119.98L340.029 120.38L341.909 119.38L342.269 119.9L340.689 121.16L338.809 121.4L335.949 120.58L334.169 117.68L334.149 114.34L335.509 111.96L337.609 110.86L339.429 110.6L342.489 111L341.889 114.14L341.229 114.24L340.869 111.74ZM348.216 121.2L346.856 121.4L345.436 120.92L344.796 119.32L344.896 115.6L344.796 112.24L343.416 112.04L343.296 111.34L344.876 110.92L345.596 108.9H346.616L346.556 111.14L348.976 111.22L348.856 112.1L346.756 112.24L346.676 113.16L346.756 119.22L347.156 120.42L349.036 119.92L349.336 120.52L348.216 121.2ZM352.241 115.62L352.221 115.8L352.761 118.62L354.341 120.18L356.181 120.38L358.061 119.38L358.421 119.9L356.841 121.16L354.961 121.4L353.001 120.94L351.301 119.52L350.281 116.52L350.621 113.84L351.661 111.96L353.761 110.8L355.521 110.58L356.921 111.02L358.001 112L358.621 113.78L358.641 115.44L358.361 115.66L355.701 115.84L352.241 115.62ZM353.241 112.38L352.461 113.9L352.341 114.8L355.381 114.84L356.761 114.54L356.641 112.68L356.041 111.66L354.761 111.48L353.241 112.38ZM363.403 112.64H363.483L364.723 111.22L366.083 110.62L367.583 111L367.243 113.98L366.543 113.84L366.043 111.78L364.743 112.2L363.323 113.86L363.223 115.74L363.283 117.68L363.363 120L365.363 120.4L365.263 121.1L362.363 121L359.923 121.1L359.963 120.4L361.283 120L361.383 117.9L361.343 114.06L361.243 111.98L359.823 112.04L359.723 111.34L362.483 110.8L363.483 111.02L363.403 112.64ZM375.003 113.72L374.103 111.96L372.763 111.6L372.863 110.9L375.303 111L377.743 110.9L377.703 111.6L376.343 112L376.663 113.16L377.743 116.5L378.543 119.42H378.603L379.143 117.38L380.663 113.08L380.103 111.96L378.763 111.6L378.863 110.9L381.303 111L383.743 110.9L383.703 111.6L382.343 112L382.663 113.16L383.623 116.5L384.423 119.42H384.483L385.023 117.38L386.423 113.22L386.743 111.94L385.183 111.6L385.283 110.9L387.243 111L389.363 110.9L389.323 111.6L388.083 112L387.223 113.84L385.083 120.42L384.463 121.46L383.803 121.6L381.243 114.44L379.203 120.42L378.583 121.46L377.923 121.6L375.003 113.72ZM391.083 106.84L392.003 106.4L392.963 106.72L393.403 107.8L392.843 108.68L391.903 109.06L391.023 108.52L390.603 107.62L391.083 106.84ZM393.343 113.74L393.223 115.74L393.283 117.68L393.363 120L394.823 120.4L394.723 121.1L392.363 121L389.923 121.1L389.963 120.4L391.283 120L391.383 117.9L391.343 114.06L391.243 111.98L389.823 112.04L389.723 111.34L392.483 110.8L393.483 111.02L393.343 113.74ZM400.384 121.2L399.024 121.4L397.604 120.92L396.964 119.32L397.064 115.6L396.964 112.24L395.584 112.04L395.464 111.34L397.044 110.92L397.764 108.9H398.784L398.724 111.14L401.144 111.22L401.024 112.1L398.924 112.24L398.844 113.16L398.924 119.22L399.324 120.42L401.204 119.92L401.504 120.52L400.384 121.2ZM405.389 108.82L405.329 112.1L407.549 110.74L409.589 110.6L411.429 111.86L411.729 113.46L411.689 117.68L411.849 120.02L413.269 120.4L413.169 121.1L410.809 121L408.369 121.1L408.409 120.4L409.729 120L409.869 117.9L409.789 113.54L409.249 112.22L407.549 111.92L405.309 113.06L405.269 115.74L405.309 117.68L405.369 120L406.829 120.4L406.729 121.1L404.369 121L401.929 121.1L401.969 120.4L403.289 120L403.469 117.9L403.389 109.14L403.249 107.06L401.829 107.12L401.729 106.42L404.489 105.88L405.489 106.1L405.389 108.82ZM423.548 121.2L422.188 121.4L420.768 120.92L420.128 119.32L420.228 115.6L420.128 112.24L418.748 112.04L418.628 111.34L420.208 110.92L420.928 108.9H421.948L421.888 111.14L424.308 111.22L424.188 112.1L422.088 112.24L422.008 113.16L422.088 119.22L422.488 120.42L424.368 119.92L424.668 120.52L423.548 121.2ZM428.553 108.82L428.493 112.1L430.713 110.74L432.753 110.6L434.593 111.86L434.893 113.46L434.853 117.68L435.013 120.02L436.433 120.4L436.333 121.1L433.973 121L431.533 121.1L431.573 120.4L432.893 120L433.033 117.9L432.953 113.54L432.413 112.22L430.713 111.92L428.473 113.06L428.433 115.74L428.473 117.68L428.533 120L429.993 120.4L429.893 121.1L427.533 121L425.093 121.1L425.133 120.4L426.453 120L426.633 117.9L426.553 109.14L426.413 107.06L424.993 107.12L424.893 106.42L427.653 105.88L428.653 106.1L428.553 108.82ZM439.526 115.62L439.506 115.8L440.046 118.62L441.626 120.18L443.466 120.38L445.346 119.38L445.706 119.9L444.126 121.16L442.246 121.4L440.286 120.94L438.586 119.52L437.566 116.52L437.906 113.84L438.946 111.96L441.046 110.8L442.806 110.58L444.206 111.02L445.286 112L445.906 113.78L445.926 115.44L445.646 115.66L442.986 115.84L439.526 115.62ZM440.526 112.38L439.746 113.9L439.626 114.8L442.666 114.84L444.046 114.54L443.926 112.68L443.326 111.66L442.046 111.48L440.526 112.38ZM455.175 108.74L455.055 115.74L455.115 117.68L455.275 120L456.735 120.4L456.635 121.1L454.195 121L451.755 121.1L451.795 120.4L453.115 120L453.215 117.9L453.295 113.52L453.175 109.06L453.075 107.06L451.655 107.12L451.555 106.42L454.315 105.88L455.315 106.1L455.175 108.74ZM459.76 115.62L459.74 115.8L460.28 118.62L461.86 120.18L463.7 120.38L465.58 119.38L465.94 119.9L464.36 121.16L462.48 121.4L460.52 120.94L458.82 119.52L457.8 116.52L458.14 113.84L459.18 111.96L461.28 110.8L463.04 110.58L464.44 111.02L465.52 112L466.14 113.78L466.16 115.44L465.88 115.66L463.22 115.84L459.76 115.62ZM460.76 112.38L459.98 113.9L459.86 114.8L462.9 114.84L464.28 114.54L464.16 112.68L463.56 111.66L462.28 111.48L460.76 112.38ZM474.543 106.54L474.123 108.68L473.463 108.78L473.203 107.02L473.043 106.78L472.283 106.68L471.043 107.5L470.783 109.4V111.6L473.643 111.5L473.443 112.5L470.783 112.4L470.803 117.64L470.903 120L472.983 120.4L472.883 121.1L469.843 121L467.403 121.1L467.443 120.4L468.783 120L468.983 117.96L468.903 112.4L467.603 112.5V111.5L468.923 111.58L469.043 108.6L470.063 106.7L471.863 105.9L473.923 106.14L474.543 106.54ZM479.134 121.2L477.774 121.4L476.354 120.92L475.714 119.32L475.814 115.6L475.714 112.24L474.334 112.04L474.214 111.34L475.794 110.92L476.514 108.9H477.534L477.474 111.14L479.894 111.22L479.774 112.1L477.674 112.24L477.594 113.16L477.674 119.22L478.074 120.42L479.954 119.92L480.254 120.52L479.134 121.2ZM488.145 119.88L489.645 120.26L491.665 119.1L491.585 116.4H489.845L488.305 117.02L487.605 118.26L488.145 119.88ZM493.305 117.36L493.445 120.18L494.825 120.38L494.685 121.04L491.905 121.28L491.645 120.1H491.545L489.565 121.28H487.485L486.085 120.26L485.665 118.3L486.545 116.74L488.945 115.7L491.585 115.6L491.505 113.1L491.125 111.86L489.505 111.4L487.565 111.86L487.505 113.98L486.725 114.14L486.205 111.4L488.505 110.72L491.085 110.6L492.645 111.36L493.285 113.08L493.305 117.36ZM505.547 120.02L506.967 120.4L506.867 121.1L504.507 121L502.067 121.1L502.107 120.4L503.427 120L503.567 117.9L503.487 113.54L502.947 112.22L501.247 111.92L499.067 113.04L499.027 113.74L498.907 115.74L498.947 117.68L499.047 120L500.507 120.4L500.407 121.1L498.047 121L495.607 121.1L495.647 120.4L496.967 120L497.107 117.9L496.927 111.98L495.507 112.04L495.407 111.34L498.167 110.8L499.167 111.02L499.107 112.04L501.247 110.74L503.287 110.6L505.127 111.86L505.427 113.46L505.387 117.68L505.547 120.02ZM515.158 120.1H515.058L512.838 121.4L510.618 121.16L509.158 120.12L507.998 117.74L507.978 114.34L508.738 112.76L511.038 110.9L513.258 110.6L515.198 111.1L515.078 107.28L513.418 107.12L513.518 106.42L516.278 105.88L517.078 106.1L516.938 113.84L517.078 120.18L518.458 120.38L518.318 121.04L515.538 121.28L515.158 120.1ZM512.218 120.38L515.158 119.26L515.198 112.2L512.978 111.5L511.718 111.86L510.178 113.5L509.898 115.8L510.498 119.16L512.218 120.38ZM265.698 137.64H265.778L267.018 136.22L268.378 135.62L269.878 136L269.538 138.98L268.838 138.84L268.338 136.78L267.038 137.2L265.618 138.86L265.518 140.74L265.578 142.68L265.658 145L267.658 145.4L267.558 146.1L264.658 146L262.218 146.1L262.258 145.4L263.578 145L263.678 142.9L263.638 139.06L263.538 136.98L262.118 137.04L262.018 136.34L264.778 135.8L265.778 136.02L265.698 137.64ZM271.991 131.84L272.911 131.4L273.871 131.72L274.311 132.8L273.751 133.68L272.811 134.06L271.931 133.52L271.511 132.62L271.991 131.84ZM274.251 138.74L274.131 140.74L274.191 142.68L274.271 145L275.731 145.4L275.631 146.1L273.271 146L270.831 146.1L270.871 145.4L272.191 145L272.291 142.9L272.251 139.06L272.151 136.98L270.731 137.04L270.631 136.34L273.391 135.8L274.391 136.02L274.251 138.74ZM285.832 134.52L286.472 135.86L285.632 136.38L283.972 136.6L285.372 138.32L285.352 140.26L284.232 141.92L281.792 142.72L279.672 142.42L279.312 142.94L279.232 143.5L279.792 143.86L283.232 144.4L284.572 144.7L285.912 145.66L286.072 148.04L285.152 149.42L282.912 150.44L279.752 150.54L278.372 150.12L277.232 149.12L276.812 147.68L277.412 145.94L278.772 145.3L278.052 144.62V143.24L278.952 142.18L277.252 140.86L277.052 138.32L278.712 136.4L281.252 135.8L283.272 136.2L285.832 134.52ZM280.692 141.86L282.332 141.64L283.392 140.5L283.552 138.54L282.672 137.04L281.212 136.6L279.292 137.4L278.732 139.16L279.372 141.14L280.692 141.86ZM281.772 145.88L279.452 145.56L278.552 146.54L278.432 148.02L279.332 149.32L281.592 149.66L283.972 148.76L284.552 146.82L281.772 145.88ZM290.281 133.82L290.221 137.1L292.441 135.74L294.481 135.6L296.321 136.86L296.621 138.46L296.581 142.68L296.741 145.02L298.161 145.4L298.061 146.1L295.701 146L293.261 146.1L293.301 145.4L294.621 145L294.761 142.9L294.681 138.54L294.141 137.22L292.441 136.92L290.201 138.06L290.161 140.74L290.201 142.68L290.261 145L291.721 145.4L291.621 146.1L289.261 146L286.821 146.1L286.861 145.4L288.181 145L288.361 142.9L288.281 134.14L288.141 132.06L286.721 132.12L286.621 131.42L289.381 130.88L290.381 131.1L290.281 133.82ZM303.695 146.2L302.335 146.4L300.915 145.92L300.275 144.32L300.375 140.6L300.275 137.24L298.895 137.04L298.775 136.34L300.355 135.92L301.075 133.9H302.095L302.035 136.14L304.455 136.22L304.335 137.1L302.235 137.24L302.155 138.16L302.235 144.22L302.635 145.42L304.515 144.92L304.815 145.52L303.695 146.2ZM312.706 144.88L314.206 145.26L316.226 144.1L316.146 141.4H314.406L312.866 142.02L312.166 143.26L312.706 144.88ZM317.866 142.36L318.006 145.18L319.386 145.38L319.246 146.04L316.466 146.28L316.206 145.1H316.106L314.126 146.28H312.046L310.646 145.26L310.226 143.3L311.106 141.74L313.506 140.7L316.146 140.6L316.066 138.1L315.686 136.86L314.066 136.4L312.126 136.86L312.066 138.98L311.286 139.14L310.766 136.4L313.066 135.72L315.646 135.6L317.206 136.36L317.846 138.08L317.866 142.36ZM323.647 137.64H323.727L324.967 136.22L326.327 135.62L327.827 136L327.487 138.98L326.787 138.84L326.287 136.78L324.987 137.2L323.567 138.86L323.467 140.74L323.527 142.68L323.607 145L325.607 145.4L325.507 146.1L322.607 146L320.167 146.1L320.207 145.4L321.527 145L321.627 142.9L321.587 139.06L321.487 136.98L320.067 137.04L319.967 136.34L322.727 135.8L323.727 136.02L323.647 137.64ZM332.261 137.64H332.341L333.581 136.22L334.941 135.62L336.441 136L336.101 138.98L335.401 138.84L334.901 136.78L333.601 137.2L332.181 138.86L332.081 140.74L332.141 142.68L332.221 145L334.221 145.4L334.121 146.1L331.221 146L328.781 146.1L328.821 145.4L330.141 145L330.241 142.9L330.201 139.06L330.101 136.98L328.681 137.04L328.581 136.34L331.341 135.8L332.341 136.02L332.261 137.64ZM337.516 142.2V139.58L338.696 137.2L340.956 135.7L343.696 135.6L346.196 137.1L347.496 139.5L347.256 143.16L345.776 145.52L342.676 146.4L340.076 145.9L338.176 144.18L337.516 142.2ZM339.716 138.9L339.616 141.14L339.856 143.46L340.716 144.96L342.836 145.48L344.796 144.62L345.376 141.5L345.176 138.9L344.436 137.24L342.976 136.5L340.976 136.72L339.716 138.9ZM350.11 138.72L349.21 136.96L347.87 136.6L347.97 135.9L350.41 136L352.85 135.9L352.81 136.6L351.45 137L351.77 138.16L352.85 141.5L353.65 144.42H353.71L354.25 142.38L355.77 138.08L355.21 136.96L353.87 136.6L353.97 135.9L356.41 136L358.85 135.9L358.81 136.6L357.45 137L357.77 138.16L358.73 141.5L359.53 144.42H359.59L360.13 142.38L361.53 138.22L361.85 136.94L360.29 136.6L360.39 135.9L362.35 136L364.47 135.9L364.43 136.6L363.19 137L362.33 138.84L360.19 145.42L359.57 146.46L358.91 146.6L356.35 139.44L354.31 145.42L353.69 146.46L353.03 146.6L350.11 138.72ZM366.454 145.22L368.114 145.48L369.974 145.22L370.414 143.86L369.874 142.82L366.154 140.56L365.354 139.3L365.314 137.18L366.734 135.98L368.834 135.6L371.774 136.2L371.354 139.14L370.514 138.86L370.134 136.78L368.754 136.52L367.254 136.86L366.874 137.96L367.354 139.14L371.194 141.34L372.134 142.52L372.214 144.4L370.854 146L368.454 146.4L366.794 146.32L364.934 145.6L365.434 142.72L366.294 143L366.454 145.22ZM374.307 144.2L375.227 143.84L376.147 144.22L376.427 145.22L375.947 146.06L374.947 146.34L374.187 145.86L373.847 144.94L374.307 144.2ZM147.453 168.4L147.613 170L149.233 170.4L149.133 171.2L146.493 171L143.813 171.2L143.853 170.4L145.433 170.04L145.533 168.42L145.593 165.18L142.153 159.36L140.953 157.96L139.552 157.6L139.652 156.8L142.273 157L145.073 156.8L145.033 157.6L143.593 157.92L144.173 159.34L145.692 161.92L146.713 163.84H146.793L147.773 162.1L149.493 159.3L150.013 157.84L148.573 157.6L148.673 156.8L150.933 157L153.073 156.8L153.033 157.6L151.572 157.92L150.553 159.34L147.313 164.68L147.453 168.4ZM151.686 167.2V164.58L152.866 162.2L155.126 160.7L157.866 160.6L160.366 162.1L161.666 164.5L161.426 168.16L159.946 170.52L156.846 171.4L154.246 170.9L152.346 169.18L151.686 167.2ZM153.886 163.9L153.786 166.14L154.026 168.46L154.886 169.96L157.006 170.48L158.966 169.62L159.546 166.5L159.346 163.9L158.606 162.24L157.146 161.5L155.146 161.72L153.886 163.9ZM166.09 164.1V168.46L166.63 169.78L168.31 170L170.49 168.7V166.58L170.47 164.08L170.37 162L168.95 162.06L168.85 161.36L171.61 160.82L172.61 161.04L172.47 163.76L172.45 165.36L172.49 166.58V170.18L173.89 170.58L173.79 171.28H171.05L170.59 169.6L168.33 171.26L166.29 171.4L164.45 170.14L164.15 168.54L164.17 164.26L163.97 161.98L162.55 162.04L162.45 161.34L165.21 160.8L166.21 161.02L166.09 164.1ZM186.533 161.74L184.013 161.54L182.213 163.46L181.693 165.54L181.953 167.66L183.233 169.98L185.693 170.38L187.573 169.38L187.933 169.9L186.353 171.16L184.473 171.4L181.613 170.58L179.833 167.68L179.813 164.34L181.173 161.96L183.273 160.86L185.093 160.6L188.153 161L187.553 164.14L186.893 164.24L186.533 161.74ZM191.68 169.88L193.18 170.26L195.2 169.1L195.12 166.4H193.38L191.84 167.02L191.14 168.26L191.68 169.88ZM196.84 167.36L196.98 170.18L198.36 170.38L198.22 171.04L195.44 171.28L195.18 170.1H195.08L193.1 171.28H191.02L189.62 170.26L189.2 168.3L190.08 166.74L192.48 165.7L195.12 165.6L195.04 163.1L194.66 161.86L193.04 161.4L191.1 161.86L191.04 163.98L190.26 164.14L189.74 161.4L192.04 160.72L194.62 160.6L196.18 161.36L196.82 163.08L196.84 167.36ZM209.082 170.02L210.502 170.4L210.402 171.1L208.042 171L205.602 171.1L205.642 170.4L206.962 170L207.102 167.9L207.022 163.54L206.482 162.22L204.782 161.92L202.602 163.04L202.562 163.74L202.442 165.74L202.482 167.68L202.582 170L204.042 170.4L203.942 171.1L201.582 171L199.142 171.1L199.182 170.4L200.502 170L200.642 167.9L200.462 161.98L199.042 162.04L198.942 161.34L201.702 160.8L202.702 161.02L202.642 162.04L204.782 160.74L206.822 160.6L208.662 161.86L208.962 163.46L208.922 167.68L209.082 170.02ZM217.519 170.22L219.179 170.48L221.039 170.22L221.479 168.86L220.939 167.82L217.219 165.56L216.419 164.3L216.379 162.18L217.799 160.98L219.899 160.6L222.839 161.2L222.419 164.14L221.579 163.86L221.199 161.78L219.819 161.52L218.319 161.86L217.939 162.96L218.419 164.14L222.259 166.34L223.199 167.52L223.279 169.4L221.919 171L219.519 171.4L217.859 171.32L215.999 170.6L216.499 167.72L217.359 168L217.519 170.22ZM227.772 158.82L227.712 162.1L229.932 160.74L231.972 160.6L233.812 161.86L234.112 163.46L234.072 167.68L234.232 170.02L235.652 170.4L235.552 171.1L233.192 171L230.752 171.1L230.792 170.4L232.112 170L232.252 167.9L232.172 163.54L231.632 162.22L229.932 161.92L227.692 163.06L227.652 165.74L227.692 167.68L227.752 170L229.212 170.4L229.112 171.1L226.752 171L224.312 171.1L224.352 170.4L225.672 170L225.852 167.9L225.772 159.14L225.632 157.06L224.212 157.12L224.112 156.42L226.872 155.88L227.872 156.1L227.772 158.82ZM236.745 167.2V164.58L237.925 162.2L240.185 160.7L242.925 160.6L245.425 162.1L246.725 164.5L246.485 168.16L245.005 170.52L241.905 171.4L239.305 170.9L237.405 169.18L236.745 167.2ZM238.945 163.9L238.845 166.14L239.085 168.46L239.945 169.96L242.065 170.48L244.025 169.62L244.605 166.5L244.405 163.9L243.665 162.24L242.205 161.5L240.205 161.72L238.945 163.9ZM248.268 167.2V164.58L249.448 162.2L251.708 160.7L254.448 160.6L256.948 162.1L258.248 164.5L258.008 168.16L256.528 170.52L253.428 171.4L250.828 170.9L248.928 169.18L248.268 167.2ZM250.468 163.9L250.368 166.14L250.608 168.46L251.468 169.96L253.588 170.48L255.548 169.62L256.128 166.5L255.928 163.9L255.188 162.24L253.728 161.5L251.728 161.72L250.468 163.9ZM264.232 171.2L262.872 171.4L261.452 170.92L260.812 169.32L260.912 165.6L260.812 162.24L259.432 162.04L259.312 161.34L260.892 160.92L261.612 158.9H262.632L262.572 161.14L264.992 161.22L264.872 162.1L262.772 162.24L262.692 163.16L262.772 169.22L263.172 170.42L265.052 169.92L265.352 170.52L264.232 171.2ZM273.523 161.86L273.663 162L275.743 160.86L277.923 160.8L280.043 162.42L280.883 165.76L280.283 168.74L278.843 170.56L275.963 171.4L272.183 170.9L271.483 170.2L271.643 163.6L271.623 159.06L271.523 157.06L270.103 157.12L270.003 156.42L272.763 155.88L273.763 156.1L273.523 161.86ZM273.483 167.94L273.643 169.8L276.243 170.38L278.223 169.14L278.803 166.94L278.723 164.3L277.303 162.24L276.063 161.94L273.523 162.96L273.483 167.94ZM283.499 176.4L282.879 175.5L282.279 173.86L283.039 173.58L284.159 175.24L285.179 174.26L286.579 171.06L283.479 163.12L282.779 161.9L281.359 161.6L281.459 160.9L283.899 161L286.279 160.9L286.239 161.6L285.079 161.94L285.379 163.18L286.459 165.94L287.559 169.16H287.619L288.619 166.02L289.639 163.16L289.839 161.88L288.719 161.6L288.819 160.9L290.959 161L292.659 160.9L292.619 161.6L291.399 161.96L290.699 163.46L287.719 171.42L285.999 174.72L284.499 176.2L283.499 176.4ZM301.13 161.9H301.27L303.41 160.6L305.63 160.84L307.09 161.88L308.25 164.26L308.27 167.66L307.51 169.24L305.21 171.1L302.99 171.4L301.09 170.9L301.15 172.68L301.31 175L302.77 175.4L302.67 176.1L300.23 176L297.79 176.1L297.83 175.4L299.15 175L299.25 172.9L299.33 168.52L299.21 164.06L299.11 161.92L297.69 161.98L297.59 161.28L300.35 160.74L301.11 160.96L301.13 161.9ZM301.11 169.8L303.27 170.5L304.53 170.14L306.07 168.5L306.35 166.2L305.75 162.84L303.97 161.78L301.17 162.74L301.21 163.74L301.11 169.8ZM313.208 162.64H313.288L314.528 161.22L315.888 160.62L317.388 161L317.048 163.98L316.348 163.84L315.848 161.78L314.548 162.2L313.128 163.86L313.028 165.74L313.088 167.68L313.168 170L315.168 170.4L315.068 171.1L312.168 171L309.728 171.1L309.768 170.4L311.088 170L311.188 167.9L311.148 164.06L311.048 161.98L309.628 162.04L309.528 161.34L312.288 160.8L313.288 161.02L313.208 162.64ZM320.464 165.62L320.444 165.8L320.984 168.62L322.564 170.18L324.404 170.38L326.284 169.38L326.644 169.9L325.064 171.16L323.184 171.4L321.224 170.94L319.524 169.52L318.504 166.52L318.844 163.84L319.884 161.96L321.984 160.8L323.744 160.58L325.144 161.02L326.224 162L326.844 163.78L326.864 165.44L326.584 165.66L323.924 165.84L320.464 165.62ZM321.464 162.38L320.684 163.9L320.564 164.8L323.604 164.84L324.984 164.54L324.864 162.68L324.264 161.66L322.984 161.48L321.464 162.38ZM329.726 170.22L331.386 170.48L333.246 170.22L333.686 168.86L333.146 167.82L329.426 165.56L328.626 164.3L328.586 162.18L330.006 160.98L332.106 160.6L335.046 161.2L334.626 164.14L333.786 163.86L333.406 161.78L332.026 161.52L330.526 161.86L330.146 162.96L330.626 164.14L334.466 166.34L335.406 167.52L335.486 169.4L334.126 171L331.726 171.4L330.066 171.32L328.206 170.6L328.706 167.72L329.566 168L329.726 170.22ZM338.359 170.22L340.019 170.48L341.879 170.22L342.319 168.86L341.779 167.82L338.059 165.56L337.259 164.3L337.219 162.18L338.639 160.98L340.739 160.6L343.679 161.2L343.259 164.14L342.419 163.86L342.039 161.78L340.659 161.52L339.159 161.86L338.779 162.96L339.259 164.14L343.099 166.34L344.039 167.52L344.119 169.4L342.759 171L340.359 171.4L338.699 171.32L336.839 170.6L337.339 167.72L338.199 168L338.359 170.22ZM346.572 156.84L347.492 156.4L348.452 156.72L348.892 157.8L348.332 158.68L347.392 159.06L346.512 158.52L346.092 157.62L346.572 156.84ZM348.832 163.74L348.712 165.74L348.772 167.68L348.852 170L350.312 170.4L350.212 171.1L347.852 171L345.412 171.1L345.452 170.4L346.772 170L346.872 167.9L346.832 164.06L346.732 161.98L345.312 162.04L345.212 161.34L347.972 160.8L348.972 161.02L348.832 163.74ZM361.152 170.02L362.572 170.4L362.472 171.1L360.112 171L357.672 171.1L357.712 170.4L359.032 170L359.172 167.9L359.092 163.54L358.552 162.22L356.852 161.92L354.672 163.04L354.632 163.74L354.512 165.74L354.552 167.68L354.652 170L356.112 170.4L356.012 171.1L353.652 171L351.212 171.1L351.252 170.4L352.572 170L352.712 167.9L352.532 161.98L351.112 162.04L351.012 161.34L353.772 160.8L354.772 161.02L354.712 162.04L356.852 160.74L358.892 160.6L360.732 161.86L361.032 163.46L360.992 167.68L361.152 170.02ZM372.463 159.52L373.103 160.86L372.263 161.38L370.603 161.6L372.003 163.32L371.983 165.26L370.863 166.92L368.423 167.72L366.303 167.42L365.943 167.94L365.863 168.5L366.423 168.86L369.863 169.4L371.203 169.7L372.543 170.66L372.703 173.04L371.783 174.42L369.543 175.44L366.383 175.54L365.003 175.12L363.863 174.12L363.443 172.68L364.043 170.94L365.403 170.3L364.683 169.62V168.24L365.583 167.18L363.883 165.86L363.683 163.32L365.343 161.4L367.883 160.8L369.903 161.2L372.463 159.52ZM367.323 166.86L368.963 166.64L370.023 165.5L370.183 163.54L369.303 162.04L367.843 161.6L365.923 162.4L365.363 164.16L366.003 166.14L367.323 166.86ZM368.403 170.88L366.083 170.56L365.183 171.54L365.063 173.02L365.963 174.32L368.223 174.66L370.603 173.76L371.183 171.82L368.403 170.88ZM383.118 171.2L381.758 171.4L380.338 170.92L379.698 169.32L379.798 165.6L379.698 162.24L378.318 162.04L378.198 161.34L379.778 160.92L380.498 158.9H381.518L381.458 161.14L383.878 161.22L383.758 162.1L381.658 162.24L381.578 163.16L381.658 169.22L382.058 170.42L383.938 169.92L384.238 170.52L383.118 171.2ZM388.123 158.82L388.063 162.1L390.283 160.74L392.323 160.6L394.163 161.86L394.463 163.46L394.423 167.68L394.583 170.02L396.003 170.4L395.903 171.1L393.543 171L391.103 171.1L391.143 170.4L392.463 170L392.603 167.9L392.523 163.54L391.983 162.22L390.283 161.92L388.043 163.06L388.003 165.74L388.043 167.68L388.103 170L389.563 170.4L389.463 171.1L387.103 171L384.663 171.1L384.703 170.4L386.023 170L386.203 167.9L386.123 159.14L385.983 157.06L384.563 157.12L384.463 156.42L387.223 155.88L388.223 156.1L388.123 158.82ZM399.096 165.62L399.076 165.8L399.616 168.62L401.196 170.18L403.036 170.38L404.916 169.38L405.276 169.9L403.696 171.16L401.816 171.4L399.856 170.94L398.156 169.52L397.136 166.52L397.476 163.84L398.516 161.96L400.616 160.8L402.376 160.58L403.776 161.02L404.856 162L405.476 163.78L405.496 165.44L405.216 165.66L402.556 165.84L399.096 165.62ZM400.096 162.38L399.316 163.9L399.196 164.8L402.236 164.84L403.616 164.54L403.496 162.68L402.896 161.66L401.616 161.48L400.096 162.38ZM413.105 170.22L414.765 170.48L416.625 170.22L417.065 168.86L416.525 167.82L412.805 165.56L412.005 164.3L411.965 162.18L413.385 160.98L415.485 160.6L418.425 161.2L418.005 164.14L417.165 163.86L416.785 161.78L415.405 161.52L413.905 161.86L413.525 162.96L414.005 164.14L417.845 166.34L418.785 167.52L418.865 169.4L417.505 171L415.105 171.4L413.445 171.32L411.585 170.6L412.085 167.72L412.945 168L413.105 170.22ZM423.298 161.9H423.438L425.578 160.6L427.798 160.84L429.258 161.88L430.418 164.26L430.438 167.66L429.678 169.24L427.378 171.1L425.158 171.4L423.258 170.9L423.318 172.68L423.478 175L424.938 175.4L424.838 176.1L422.398 176L419.958 176.1L419.998 175.4L421.318 175L421.418 172.9L421.498 168.52L421.378 164.06L421.278 161.92L419.858 161.98L419.758 161.28L422.518 160.74L423.278 160.96L423.298 161.9ZM423.278 169.8L425.438 170.5L426.698 170.14L428.238 168.5L428.518 166.2L427.918 162.84L426.138 161.78L423.338 162.74L423.378 163.74L423.278 169.8ZM434.356 169.88L435.856 170.26L437.876 169.1L437.796 166.4H436.056L434.516 167.02L433.816 168.26L434.356 169.88ZM439.516 167.36L439.656 170.18L441.036 170.38L440.896 171.04L438.116 171.28L437.856 170.1H437.756L435.776 171.28H433.696L432.296 170.26L431.876 168.3L432.756 166.74L435.156 165.7L437.796 165.6L437.716 163.1L437.336 161.86L435.716 161.4L433.776 161.86L433.716 163.98L432.936 164.14L432.416 161.4L434.716 160.72L437.296 160.6L438.856 161.36L439.496 163.08L439.516 167.36ZM448.818 161.74L446.298 161.54L444.498 163.46L443.978 165.54L444.238 167.66L445.518 169.98L447.978 170.38L449.858 169.38L450.218 169.9L448.638 171.16L446.758 171.4L443.898 170.58L442.118 167.68L442.098 164.34L443.458 161.96L445.558 160.86L447.378 160.6L450.438 161L449.838 164.14L449.178 164.24L448.818 161.74ZM453.647 165.62L453.627 165.8L454.167 168.62L455.747 170.18L457.587 170.38L459.467 169.38L459.827 169.9L458.247 171.16L456.367 171.4L454.407 170.94L452.707 169.52L451.687 166.52L452.027 163.84L453.067 161.96L455.167 160.8L456.927 160.58L458.327 161.02L459.407 162L460.027 163.78L460.047 165.44L459.767 165.66L457.107 165.84L453.647 165.62ZM454.647 162.38L453.867 163.9L453.747 164.8L456.787 164.84L458.167 164.54L458.047 162.68L457.447 161.66L456.167 161.48L454.647 162.38ZM468.816 161.86L468.956 162L471.036 160.86L473.216 160.8L475.336 162.42L476.176 165.76L475.576 168.74L474.136 170.56L471.256 171.4L467.476 170.9L466.776 170.2L466.936 163.6L466.916 159.06L466.816 157.06L465.396 157.12L465.296 156.42L468.056 155.88L469.056 156.1L468.816 161.86ZM468.776 167.94L468.936 169.8L471.536 170.38L473.516 169.14L474.096 166.94L474.016 164.3L472.596 162.24L471.356 161.94L468.816 162.96L468.776 167.94ZM479.981 169.88L481.481 170.26L483.501 169.1L483.421 166.4H481.681L480.141 167.02L479.441 168.26L479.981 169.88ZM485.141 167.36L485.281 170.18L486.661 170.38L486.521 171.04L483.741 171.28L483.481 170.1H483.381L481.401 171.28H479.321L477.921 170.26L477.501 168.3L478.381 166.74L480.781 165.7L483.421 165.6L483.341 163.1L482.961 161.86L481.341 161.4L479.401 161.86L479.341 163.98L478.561 164.14L478.041 161.4L480.341 160.72L482.921 160.6L484.481 161.36L485.121 163.08L485.141 167.36ZM490.923 162.64H491.003L492.243 161.22L493.603 160.62L495.103 161L494.763 163.98L494.063 163.84L493.563 161.78L492.263 162.2L490.843 163.86L490.743 165.74L490.803 167.68L490.883 170L492.883 170.4L492.783 171.1L489.883 171L487.443 171.1L487.483 170.4L488.803 170L488.903 167.9L488.863 164.06L488.763 161.98L487.343 162.04L487.243 161.34L490.003 160.8L491.003 161.02L490.923 162.64ZM496.153 169.2L497.073 168.84L497.993 169.22L498.273 170.22L497.793 171.06L496.793 171.34L496.033 170.86L495.693 169.94L496.153 169.2ZM127.061 184.94L124.281 195.28L123.601 196.5L122.941 196.58L122.321 194.74L120.381 189.24L119.281 186.06L116.301 195.28L115.481 196.5L114.821 196.58L114.401 194.74L112.601 189.18L111.361 184.88L110.561 182.96L109.021 182.6L109.121 181.8L111.861 182L114.521 181.8L114.481 182.6L113.081 182.92L113.481 184.64L115.021 190.82L115.801 193.96H115.841L116.841 190.56L118.741 184.54L118.081 183L116.501 182.6L116.601 181.8L119.261 182L121.921 181.8L121.881 182.6L120.501 182.92L120.881 184.64L122.941 190.82L123.701 193.9H123.741L124.461 190.56L126.141 184.54L126.421 182.94L124.841 182.6L124.941 181.8L127.241 182L129.361 181.8L129.321 182.6L127.881 182.98L127.061 184.94ZM133.631 183.82L133.571 187.1L135.791 185.74L137.831 185.6L139.671 186.86L139.971 188.46L139.931 192.68L140.091 195.02L141.511 195.4L141.411 196.1L139.051 196L136.611 196.1L136.651 195.4L137.971 195L138.111 192.9L138.031 188.54L137.491 187.22L135.791 186.92L133.551 188.06L133.511 190.74L133.551 192.68L133.611 195L135.071 195.4L134.971 196.1L132.611 196L130.171 196.1L130.211 195.4L131.531 195L131.711 192.9L131.631 184.14L131.491 182.06L130.071 182.12L129.971 181.42L132.731 180.88L133.731 181.1L133.631 183.82ZM144.604 190.62L144.584 190.8L145.124 193.62L146.704 195.18L148.544 195.38L150.424 194.38L150.784 194.9L149.204 196.16L147.324 196.4L145.364 195.94L143.664 194.52L142.644 191.52L142.984 188.84L144.024 186.96L146.124 185.8L147.884 185.58L149.284 186.02L150.364 187L150.984 188.78L151.004 190.44L150.724 190.66L148.064 190.84L144.604 190.62ZM145.604 187.38L144.824 188.9L144.704 189.8L147.744 189.84L149.124 189.54L149.004 187.68L148.404 186.66L147.124 186.48L145.604 187.38ZM162.227 195.02L163.647 195.4L163.547 196.1L161.187 196L158.747 196.1L158.787 195.4L160.107 195L160.247 192.9L160.167 188.54L159.627 187.22L157.927 186.92L155.747 188.04L155.707 188.74L155.587 190.74L155.627 192.68L155.727 195L157.187 195.4L157.087 196.1L154.727 196L152.287 196.1L152.327 195.4L153.647 195L153.787 192.9L153.607 186.98L152.187 187.04L152.087 186.34L154.847 185.8L155.847 186.02L155.787 187.04L157.927 185.74L159.967 185.6L161.807 186.86L162.107 188.46L162.067 192.68L162.227 195.02ZM170.803 201.4L170.183 200.5L169.583 198.86L170.343 198.58L171.463 200.24L172.483 199.26L173.883 196.06L170.783 188.12L170.083 186.9L168.663 186.6L168.763 185.9L171.203 186L173.583 185.9L173.543 186.6L172.383 186.94L172.683 188.18L173.763 190.94L174.863 194.16H174.923L175.923 191.02L176.943 188.16L177.143 186.88L176.023 186.6L176.123 185.9L178.263 186L179.963 185.9L179.923 186.6L178.703 186.96L178.003 188.46L175.023 196.42L173.303 199.72L171.803 201.2L170.803 201.4ZM180.397 192.2V189.58L181.577 187.2L183.837 185.7L186.577 185.6L189.077 187.1L190.377 189.5L190.137 193.16L188.657 195.52L185.557 196.4L182.957 195.9L181.057 194.18L180.397 192.2ZM182.597 188.9L182.497 191.14L182.737 193.46L183.597 194.96L185.717 195.48L187.677 194.62L188.257 191.5L188.057 188.9L187.317 187.24L185.857 186.5L183.857 186.72L182.597 188.9ZM194.801 189.1V193.46L195.341 194.78L197.021 195L199.201 193.7V191.58L199.181 189.08L199.081 187L197.661 187.06L197.561 186.36L200.321 185.82L201.321 186.04L201.181 188.76L201.161 190.36L201.201 191.58V195.18L202.601 195.58L202.501 196.28H199.761L199.301 194.6L197.041 196.26L195.001 196.4L193.161 195.14L192.861 193.54L192.881 189.26L192.681 186.98L191.261 187.04L191.161 186.34L193.921 185.8L194.921 186.02L194.801 189.1ZM209.824 195.22L211.484 195.48L213.344 195.22L213.784 193.86L213.244 192.82L209.524 190.56L208.724 189.3L208.684 187.18L210.104 185.98L212.204 185.6L215.144 186.2L214.724 189.14L213.884 188.86L213.504 186.78L212.124 186.52L210.624 186.86L210.244 187.96L210.724 189.14L214.564 191.34L215.504 192.52L215.584 194.4L214.224 196L211.824 196.4L210.164 196.32L208.304 195.6L208.804 192.72L209.664 193L209.824 195.22ZM220.076 183.82L220.016 187.1L222.236 185.74L224.276 185.6L226.116 186.86L226.416 188.46L226.376 192.68L226.536 195.02L227.956 195.4L227.856 196.1L225.496 196L223.056 196.1L223.096 195.4L224.416 195L224.556 192.9L224.476 188.54L223.936 187.22L222.236 186.92L219.996 188.06L219.956 190.74L219.996 192.68L220.056 195L221.516 195.4L221.416 196.1L219.056 196L216.616 196.1L216.656 195.4L217.976 195L218.156 192.9L218.076 184.14L217.936 182.06L216.516 182.12L216.416 181.42L219.176 180.88L220.176 181.1L220.076 183.82ZM229.05 192.2V189.58L230.23 187.2L232.49 185.7L235.23 185.6L237.73 187.1L239.03 189.5L238.79 193.16L237.31 195.52L234.21 196.4L231.61 195.9L229.71 194.18L229.05 192.2ZM231.25 188.9L231.15 191.14L231.39 193.46L232.25 194.96L234.37 195.48L236.33 194.62L236.91 191.5L236.71 188.9L235.97 187.24L234.51 186.5L232.51 186.72L231.25 188.9ZM240.573 192.2V189.58L241.753 187.2L244.013 185.7L246.753 185.6L249.253 187.1L250.553 189.5L250.313 193.16L248.833 195.52L245.733 196.4L243.133 195.9L241.233 194.18L240.573 192.2ZM242.773 188.9L242.673 191.14L242.913 193.46L243.773 194.96L245.893 195.48L247.853 194.62L248.433 191.5L248.233 188.9L247.493 187.24L246.033 186.5L244.033 186.72L242.773 188.9ZM256.536 196.2L255.176 196.4L253.756 195.92L253.116 194.32L253.216 190.6L253.116 187.24L251.736 187.04L251.616 186.34L253.196 185.92L253.916 183.9H254.936L254.876 186.14L257.296 186.22L257.176 187.1L255.076 187.24L254.996 188.16L255.076 194.22L255.476 195.42L257.356 194.92L257.656 195.52L256.536 196.2ZM265.547 194.88L267.047 195.26L269.067 194.1L268.987 191.4H267.247L265.707 192.02L265.007 193.26L265.547 194.88ZM270.707 192.36L270.847 195.18L272.227 195.38L272.087 196.04L269.307 196.28L269.047 195.1H268.947L266.967 196.28H264.887L263.487 195.26L263.067 193.3L263.947 191.74L266.347 190.7L268.987 190.6L268.907 188.1L268.527 186.86L266.907 186.4L264.967 186.86L264.907 188.98L264.127 189.14L263.607 186.4L265.907 185.72L268.487 185.6L270.047 186.36L270.687 188.08L270.707 192.36ZM280.495 186.86L280.635 187L282.715 185.86L284.895 185.8L287.015 187.42L287.855 190.76L287.255 193.74L285.815 195.56L282.935 196.4L279.155 195.9L278.455 195.2L278.615 188.6L278.595 184.06L278.495 182.06L277.075 182.12L276.975 181.42L279.735 180.88L280.735 181.1L280.495 186.86ZM280.455 192.94L280.615 194.8L283.215 195.38L285.195 194.14L285.775 191.94L285.695 189.3L284.275 187.24L283.035 186.94L280.495 187.96L280.455 192.94ZM291.661 194.88L293.161 195.26L295.181 194.1L295.101 191.4H293.361L291.821 192.02L291.121 193.26L291.661 194.88ZM296.821 192.36L296.961 195.18L298.341 195.38L298.201 196.04L295.421 196.28L295.161 195.1H295.061L293.081 196.28H291.001L289.601 195.26L289.181 193.3L290.061 191.74L292.461 190.7L295.101 190.6L295.021 188.1L294.641 186.86L293.021 186.4L291.081 186.86L291.021 188.98L290.241 189.14L289.721 186.4L292.021 185.72L294.601 185.6L296.161 186.36L296.801 188.08L296.821 192.36ZM302.343 183.74L302.223 190.74L302.283 192.68L302.443 195L303.903 195.4L303.803 196.1L301.363 196L298.923 196.1L298.963 195.4L300.283 195L300.383 192.9L300.463 188.52L300.343 184.06L300.243 182.06L298.823 182.12L298.723 181.42L301.483 180.88L302.483 181.1L302.343 183.74ZM307.928 183.74L307.808 190.74L307.868 192.68L308.028 195L309.488 195.4L309.388 196.1L306.948 196L304.508 196.1L304.548 195.4L305.868 195L305.968 192.9L306.048 188.52L305.928 184.06L305.828 182.06L304.408 182.12L304.308 181.42L307.068 180.88L308.068 181.1L307.928 183.74ZM310.514 192.2V189.58L311.694 187.2L313.954 185.7L316.694 185.6L319.194 187.1L320.494 189.5L320.254 193.16L318.774 195.52L315.674 196.4L313.074 195.9L311.174 194.18L310.514 192.2ZM312.714 188.9L312.614 191.14L312.854 193.46L313.714 194.96L315.834 195.48L317.794 194.62L318.374 191.5L318.174 188.9L317.434 187.24L315.974 186.5L313.974 186.72L312.714 188.9ZM322.038 192.2V189.58L323.218 187.2L325.478 185.7L328.218 185.6L330.718 187.1L332.018 189.5L331.778 193.16L330.298 195.52L327.198 196.4L324.598 195.9L322.698 194.18L322.038 192.2ZM324.238 188.9L324.138 191.14L324.378 193.46L325.238 194.96L327.358 195.48L329.318 194.62L329.898 191.5L329.698 188.9L328.958 187.24L327.498 186.5L325.498 186.72L324.238 188.9ZM343.281 195.02L344.701 195.4L344.601 196.1L342.241 196L339.801 196.1L339.841 195.4L341.161 195L341.301 192.9L341.221 188.54L340.681 187.22L338.981 186.92L336.801 188.04L336.761 188.74L336.641 190.74L336.681 192.68L336.781 195L338.241 195.4L338.141 196.1L335.781 196L333.341 196.1L333.381 195.4L334.701 195L334.841 192.9L334.661 186.98L333.241 187.04L333.141 186.34L335.901 185.8L336.901 186.02L336.841 187.04L338.981 185.74L341.021 185.6L342.861 186.86L343.161 188.46L343.121 192.68L343.281 195.02ZM346.192 194.2L347.112 193.84L348.032 194.22L348.492 194.84L348.672 196.02L348.192 197.96L346.932 199.3L346.412 198.74L347.392 197.58L347.432 196.3H346.532L345.912 195.78L345.732 194.94L346.192 194.2ZM356.005 181.84L356.925 181.4L357.885 181.72L358.325 182.8L357.765 183.68L356.825 184.06L355.945 183.52L355.525 182.62L356.005 181.84ZM358.265 188.74L358.145 190.74L358.205 192.68L358.285 195L359.745 195.4L359.645 196.1L357.285 196L354.845 196.1L354.885 195.4L356.205 195L356.305 192.9L356.265 189.06L356.165 186.98L354.745 187.04L354.645 186.34L357.405 185.8L358.405 186.02L358.265 188.74ZM365.306 196.2L363.946 196.4L362.526 195.92L361.886 194.32L361.986 190.6L361.886 187.24L360.506 187.04L360.386 186.34L361.966 185.92L362.686 183.9H363.706L363.646 186.14L366.066 186.22L365.946 187.1L363.846 187.24L363.766 188.16L363.846 194.22L364.246 195.42L366.126 194.92L366.426 195.52L365.306 196.2ZM373.437 195.22L375.097 195.48L376.957 195.22L377.397 193.86L376.857 192.82L373.137 190.56L372.337 189.3L372.297 187.18L373.717 185.98L375.817 185.6L378.757 186.2L378.337 189.14L377.497 188.86L377.117 186.78L375.737 186.52L374.237 186.86L373.857 187.96L374.337 189.14L378.177 191.34L379.117 192.52L379.197 194.4L377.837 196L375.437 196.4L373.777 196.32L371.917 195.6L372.417 192.72L373.277 193L373.437 195.22ZM383.63 186.9H383.77L385.91 185.6L388.13 185.84L389.59 186.88L390.75 189.26L390.77 192.66L390.01 194.24L387.71 196.1L385.49 196.4L383.59 195.9L383.65 197.68L383.81 200L385.27 200.4L385.17 201.1L382.73 201L380.29 201.1L380.33 200.4L381.65 200L381.75 197.9L381.83 193.52L381.71 189.06L381.61 186.92L380.19 186.98L380.09 186.28L382.85 185.74L383.61 185.96L383.63 186.9ZM383.61 194.8L385.77 195.5L387.03 195.14L388.57 193.5L388.85 191.2L388.25 187.84L386.47 186.78L383.67 187.74L383.71 188.74L383.61 194.8ZM395.448 183.74L395.328 190.74L395.388 192.68L395.548 195L397.008 195.4L396.908 196.1L394.468 196L392.028 196.1L392.068 195.4L393.388 195L393.488 192.9L393.568 188.52L393.448 184.06L393.348 182.06L391.928 182.12L391.828 181.42L394.588 180.88L395.588 181.1L395.448 183.74ZM398.974 181.84L399.894 181.4L400.854 181.72L401.294 182.8L400.734 183.68L399.794 184.06L398.914 183.52L398.494 182.62L398.974 181.84ZM401.234 188.74L401.114 190.74L401.174 192.68L401.254 195L402.714 195.4L402.614 196.1L400.254 196L397.814 196.1L397.854 195.4L399.174 195L399.274 192.9L399.234 189.06L399.134 186.98L397.714 187.04L397.614 186.34L400.374 185.8L401.374 186.02L401.234 188.74ZM408.275 196.2L406.915 196.4L405.495 195.92L404.855 194.32L404.955 190.6L404.855 187.24L403.475 187.04L403.355 186.34L404.935 185.92L405.655 183.9H406.675L406.615 186.14L409.035 186.22L408.915 187.1L406.815 187.24L406.735 188.16L406.815 194.22L407.215 195.42L409.095 194.92L409.395 195.52L408.275 196.2ZM411.66 195.22L413.32 195.48L415.18 195.22L415.62 193.86L415.08 192.82L411.36 190.56L410.56 189.3L410.52 187.18L411.94 185.98L414.04 185.6L416.98 186.2L416.56 189.14L415.72 188.86L415.34 186.78L413.96 186.52L412.46 186.86L412.08 187.96L412.56 189.14L416.4 191.34L417.34 192.52L417.42 194.4L416.06 196L413.66 196.4L412 196.32L410.14 195.6L410.64 192.72L411.5 193L411.66 195.22ZM424.618 181.84L425.538 181.4L426.498 181.72L426.938 182.8L426.378 183.68L425.438 184.06L424.558 183.52L424.138 182.62L424.618 181.84ZM426.878 188.74L426.758 190.74L426.818 192.68L426.898 195L428.358 195.4L428.258 196.1L425.898 196L423.458 196.1L423.498 195.4L424.818 195L424.918 192.9L424.878 189.06L424.778 186.98L423.358 187.04L423.258 186.34L426.018 185.8L427.018 186.02L426.878 188.74ZM439.199 195.02L440.619 195.4L440.519 196.1L438.159 196L435.719 196.1L435.759 195.4L437.079 195L437.219 192.9L437.139 188.54L436.599 187.22L434.899 186.92L432.719 188.04L432.679 188.74L432.559 190.74L432.599 192.68L432.699 195L434.159 195.4L434.059 196.1L431.699 196L429.259 196.1L429.299 195.4L430.619 195L430.759 192.9L430.579 186.98L429.159 187.04L429.059 186.34L431.819 185.8L432.819 186.02L432.759 187.04L434.899 185.74L436.939 185.6L438.779 186.86L439.079 188.46L439.039 192.68L439.199 195.02ZM445.97 196.2L444.61 196.4L443.19 195.92L442.55 194.32L442.65 190.6L442.55 187.24L441.17 187.04L441.05 186.34L442.63 185.92L443.35 183.9H444.37L444.31 186.14L446.73 186.22L446.61 187.1L444.51 187.24L444.43 188.16L444.51 194.22L444.91 195.42L446.79 194.92L447.09 195.52L445.97 196.2ZM447.995 192.2V189.58L449.175 187.2L451.435 185.7L454.175 185.6L456.675 187.1L457.975 189.5L457.735 193.16L456.255 195.52L453.155 196.4L450.555 195.9L448.655 194.18L447.995 192.2ZM450.195 188.9L450.095 191.14L450.335 193.46L451.195 194.96L453.315 195.48L455.275 194.62L455.855 191.5L455.655 188.9L454.915 187.24L453.455 186.5L451.455 186.72L450.195 188.9ZM465.624 195.22L467.284 195.48L469.144 195.22L469.584 193.86L469.044 192.82L465.324 190.56L464.524 189.3L464.484 187.18L465.904 185.98L468.004 185.6L470.944 186.2L470.524 189.14L469.684 188.86L469.304 186.78L467.924 186.52L466.424 186.86L466.044 187.96L466.524 189.14L470.364 191.34L471.304 192.52L471.384 194.4L470.024 196L467.624 196.4L465.964 196.32L464.104 195.6L464.604 192.72L465.464 193L465.624 195.22ZM482.417 195.02L483.837 195.4L483.737 196.1L481.377 196L478.937 196.1L478.977 195.4L480.297 195L480.437 192.9L480.357 188.54L479.817 187.22L478.117 186.92L476.137 187.98L476.097 188.74L475.977 190.74L476.017 192.68L476.117 195L477.577 195.4L477.477 196.1L475.117 196L472.677 196.1L472.717 195.4L474.037 195L474.177 192.9L474.097 189.06L473.997 186.98L472.577 187.04L472.477 186.34L475.237 185.8L476.237 186.02L476.177 186.96L478.117 185.74L480.157 185.6L481.997 186.86L482.097 187.4L484.097 185.74L486.137 185.6L487.977 186.86L488.277 188.46L488.237 192.68L488.397 195.02L489.817 195.4L489.717 196.1L487.357 196L484.917 196.1L484.957 195.4L486.277 195L486.417 192.9L486.337 188.54L485.797 187.22L484.097 186.92L482.257 188.26L482.297 188.46L482.257 192.68L482.417 195.02ZM492.95 194.88L494.45 195.26L496.47 194.1L496.39 191.4H494.65L493.11 192.02L492.41 193.26L492.95 194.88ZM498.11 192.36L498.25 195.18L499.63 195.38L499.49 196.04L496.71 196.28L496.45 195.1H496.35L494.37 196.28H492.29L490.89 195.26L490.47 193.3L491.35 191.74L493.75 190.7L496.39 190.6L496.31 188.1L495.93 186.86L494.31 186.4L492.37 186.86L492.31 188.98L491.53 189.14L491.01 186.4L493.31 185.72L495.89 185.6L497.45 186.36L498.09 188.08L498.11 192.36ZM503.632 183.74L503.512 190.74L503.572 192.68L503.732 195L505.192 195.4L505.092 196.1L502.652 196L500.212 196.1L500.252 195.4L501.572 195L501.672 192.9L501.752 188.52L501.632 184.06L501.532 182.06L500.112 182.12L500.012 181.42L502.772 180.88L503.772 181.1L503.632 183.74ZM509.218 183.74L509.098 190.74L509.158 192.68L509.318 195L510.778 195.4L510.678 196.1L508.238 196L505.798 196.1L505.838 195.4L507.158 195L507.258 192.9L507.338 188.52L507.218 184.06L507.118 182.06L505.698 182.12L505.598 181.42L508.358 180.88L509.358 181.1L509.218 183.74ZM513.803 190.62L513.783 190.8L514.323 193.62L515.903 195.18L517.743 195.38L519.623 194.38L519.983 194.9L518.403 196.16L516.523 196.4L514.563 195.94L512.863 194.52L511.843 191.52L512.183 188.84L513.223 186.96L515.323 185.8L517.083 185.58L518.483 186.02L519.563 187L520.183 188.78L520.203 190.44L519.923 190.66L517.263 190.84L513.803 190.62ZM514.803 187.38L514.023 188.9L513.903 189.8L516.943 189.84L518.323 189.54L518.203 187.68L517.603 186.66L516.323 186.48L514.803 187.38ZM524.966 187.64H525.046L526.286 186.22L527.646 185.62L529.146 186L528.806 188.98L528.106 188.84L527.606 186.78L526.306 187.2L524.886 188.86L524.786 190.74L524.846 192.68L524.926 195L526.926 195.4L526.826 196.1L523.926 196L521.486 196.1L521.526 195.4L522.846 195L522.946 192.9L522.906 189.06L522.806 186.98L521.386 187.04L521.286 186.34L524.046 185.8L525.046 186.02L524.966 187.64ZM112.087 211.86L112.227 212L114.307 210.86L116.487 210.8L118.607 212.42L119.447 215.76L118.847 218.74L117.407 220.56L114.527 221.4L110.747 220.9L110.047 220.2L110.207 213.6L110.187 209.06L110.087 207.06L108.667 207.12L108.567 206.42L111.327 205.88L112.327 206.1L112.087 211.86ZM112.047 217.94L112.207 219.8L114.807 220.38L116.787 219.14L117.367 216.94L117.287 214.3L115.867 212.24L114.627 211.94L112.087 212.96L112.047 217.94ZM123.252 219.88L124.752 220.26L126.772 219.1L126.692 216.4H124.952L123.412 217.02L122.712 218.26L123.252 219.88ZM128.412 217.36L128.552 220.18L129.932 220.38L129.792 221.04L127.012 221.28L126.752 220.1H126.652L124.672 221.28H122.592L121.192 220.26L120.772 218.3L121.652 216.74L124.052 215.7L126.692 215.6L126.612 213.1L126.232 211.86L124.612 211.4L122.672 211.86L122.612 213.98L121.832 214.14L121.312 211.4L123.612 210.72L126.192 210.6L127.752 211.36L128.392 213.08L128.412 217.36ZM133.934 208.74L133.814 215.74L133.874 217.68L134.034 220L135.494 220.4L135.394 221.1L132.954 221L130.514 221.1L130.554 220.4L131.874 220L131.974 217.9L132.054 213.52L131.934 209.06L131.834 207.06L130.414 207.12L130.314 206.42L133.074 205.88L134.074 206.1L133.934 208.74ZM139.52 208.74L139.4 215.74L139.46 217.68L139.62 220L141.08 220.4L140.98 221.1L138.54 221L136.1 221.1L136.14 220.4L137.46 220L137.56 217.9L137.64 213.52L137.52 209.06L137.42 207.06L136 207.12L135.9 206.42L138.66 205.88L139.66 206.1L139.52 208.74ZM142.106 217.2V214.58L143.286 212.2L145.546 210.7L148.286 210.6L150.786 212.1L152.086 214.5L151.846 218.16L150.366 220.52L147.266 221.4L144.666 220.9L142.766 219.18L142.106 217.2ZM144.306 213.9L144.206 216.14L144.446 218.46L145.306 219.96L147.426 220.48L149.386 219.62L149.966 216.5L149.766 213.9L149.026 212.24L147.566 211.5L145.566 211.72L144.306 213.9ZM153.63 217.2V214.58L154.81 212.2L157.07 210.7L159.81 210.6L162.31 212.1L163.61 214.5L163.37 218.16L161.89 220.52L158.79 221.4L156.19 220.9L154.29 219.18L153.63 217.2ZM155.83 213.9L155.73 216.14L155.97 218.46L156.83 219.96L158.95 220.48L160.91 219.62L161.49 216.5L161.29 213.9L160.55 212.24L159.09 211.5L157.09 211.72L155.83 213.9ZM174.873 220.02L176.293 220.4L176.193 221.1L173.833 221L171.393 221.1L171.433 220.4L172.753 220L172.893 217.9L172.813 213.54L172.273 212.22L170.573 211.92L168.393 213.04L168.353 213.74L168.233 215.74L168.273 217.68L168.373 220L169.833 220.4L169.733 221.1L167.373 221L164.933 221.1L164.973 220.4L166.293 220L166.433 217.9L166.253 211.98L164.833 212.04L164.733 211.34L167.493 210.8L168.493 211.02L168.433 212.04L170.573 210.74L172.613 210.6L174.453 211.86L174.753 213.46L174.713 217.68L174.873 220.02ZM178.564 220.22L180.224 220.48L182.084 220.22L182.524 218.86L181.984 217.82L178.264 215.56L177.464 214.3L177.424 212.18L178.844 210.98L180.944 210.6L183.884 211.2L183.464 214.14L182.624 213.86L182.244 211.78L180.864 211.52L179.364 211.86L178.984 212.96L179.464 214.14L183.304 216.34L184.244 217.52L184.324 219.4L182.964 221L180.564 221.4L178.904 221.32L177.044 220.6L177.544 217.72L178.404 218L178.564 220.22ZM186.417 219.2L187.337 218.84L188.257 219.22L188.537 220.22L188.057 221.06L187.057 221.34L186.297 220.86L185.957 219.94L186.417 219.2ZM201.837 218.4L201.997 220L203.617 220.4L203.517 221.2L200.877 221L198.197 221.2L198.237 220.4L199.817 220.04L199.917 218.42L199.977 215.18L196.537 209.36L195.337 207.96L193.937 207.6L194.037 206.8L196.657 207L199.457 206.8L199.417 207.6L197.977 207.92L198.557 209.34L200.077 211.92L201.097 213.84H201.177L202.157 212.1L203.877 209.3L204.397 207.84L202.957 207.6L203.057 206.8L205.317 207L207.457 206.8L207.417 207.6L205.957 207.92L204.937 209.34L201.697 214.68L201.837 218.4ZM206.071 217.2V214.58L207.251 212.2L209.511 210.7L212.251 210.6L214.751 212.1L216.051 214.5L215.811 218.16L214.331 220.52L211.231 221.4L208.631 220.9L206.731 219.18L206.071 217.2ZM208.271 213.9L208.171 216.14L208.411 218.46L209.271 219.96L211.391 220.48L213.351 219.62L213.931 216.5L213.731 213.9L212.991 212.24L211.531 211.5L209.531 211.72L208.271 213.9ZM220.474 214.1V218.46L221.014 219.78L222.694 220L224.874 218.7V216.58L224.854 214.08L224.754 212L223.334 212.06L223.234 211.36L225.994 210.82L226.994 211.04L226.854 213.76L226.834 215.36L226.874 216.58V220.18L228.274 220.58L228.174 221.28H225.434L224.974 219.6L222.714 221.26L220.674 221.4L218.834 220.14L218.534 218.54L218.554 214.26L218.354 211.98L216.934 212.04L216.834 211.34L219.594 210.8L220.594 211.02L220.474 214.1ZM240.917 211.74L238.397 211.54L236.597 213.46L236.077 215.54L236.337 217.66L237.617 219.98L240.077 220.38L241.957 219.38L242.317 219.9L240.737 221.16L238.857 221.4L235.997 220.58L234.217 217.68L234.197 214.34L235.557 211.96L237.657 210.86L239.477 210.6L242.537 211L241.937 214.14L241.277 214.24L240.917 211.74ZM246.065 219.88L247.565 220.26L249.585 219.1L249.505 216.4H247.765L246.225 217.02L245.525 218.26L246.065 219.88ZM251.225 217.36L251.365 220.18L252.745 220.38L252.605 221.04L249.825 221.28L249.565 220.1H249.465L247.485 221.28H245.405L244.005 220.26L243.585 218.3L244.465 216.74L246.865 215.7L249.505 215.6L249.425 213.1L249.045 211.86L247.425 211.4L245.485 211.86L245.425 213.98L244.645 214.14L244.125 211.4L246.425 210.72L249.005 210.6L250.565 211.36L251.205 213.08L251.225 217.36ZM263.467 220.02L264.887 220.4L264.787 221.1L262.427 221L259.987 221.1L260.027 220.4L261.347 220L261.487 217.9L261.407 213.54L260.867 212.22L259.167 211.92L256.987 213.04L256.947 213.74L256.827 215.74L256.867 217.68L256.967 220L258.427 220.4L258.327 221.1L255.967 221L253.527 221.1L253.567 220.4L254.887 220L255.027 217.9L254.847 211.98L253.427 212.04L253.327 211.34L256.087 210.8L257.087 211.02L257.027 212.04L259.167 210.74L261.207 210.6L263.047 211.86L263.347 213.46L263.307 217.68L263.467 220.02ZM272.044 213.72L271.144 211.96L269.804 211.6L269.904 210.9L272.344 211L274.784 210.9L274.744 211.6L273.384 212L273.704 213.16L274.784 216.5L275.584 219.42H275.644L276.184 217.38L277.704 213.08L277.144 211.96L275.804 211.6L275.904 210.9L278.344 211L280.784 210.9L280.744 211.6L279.384 212L279.704 213.16L280.664 216.5L281.464 219.42H281.524L282.064 217.38L283.464 213.22L283.784 211.94L282.224 211.6L282.324 210.9L284.284 211L286.404 210.9L286.364 211.6L285.124 212L284.264 213.84L282.124 220.42L281.504 221.46L280.844 221.6L278.284 214.44L276.244 220.42L275.624 221.46L274.964 221.6L272.044 213.72ZM288.124 206.84L289.044 206.4L290.004 206.72L290.444 207.8L289.884 208.68L288.944 209.06L288.064 208.52L287.644 207.62L288.124 206.84ZM290.384 213.74L290.264 215.74L290.324 217.68L290.404 220L291.864 220.4L291.764 221.1L289.404 221L286.964 221.1L287.004 220.4L288.324 220L288.424 217.9L288.384 214.06L288.284 211.98L286.864 212.04L286.764 211.34L289.524 210.8L290.524 211.02L290.384 213.74ZM302.705 220.02L304.125 220.4L304.025 221.1L301.665 221L299.225 221.1L299.265 220.4L300.585 220L300.725 217.9L300.645 213.54L300.105 212.22L298.405 211.92L296.225 213.04L296.185 213.74L296.065 215.74L296.105 217.68L296.205 220L297.665 220.4L297.565 221.1L295.205 221L292.765 221.1L292.805 220.4L294.125 220L294.265 217.9L294.085 211.98L292.665 212.04L292.565 211.34L295.325 210.8L296.325 211.02L296.265 212.04L298.405 210.74L300.445 210.6L302.285 211.86L302.585 213.46L302.545 217.68L302.705 220.02ZM314.222 221.2L312.862 221.4L311.442 220.92L310.802 219.32L310.902 215.6L310.802 212.24L309.422 212.04L309.302 211.34L310.882 210.92L311.602 208.9H312.622L312.562 211.14L314.982 211.22L314.862 212.1L312.762 212.24L312.682 213.16L312.762 219.22L313.162 220.42L315.042 219.92L315.342 220.52L314.222 221.2ZM319.227 208.82L319.167 212.1L321.387 210.74L323.427 210.6L325.267 211.86L325.567 213.46L325.527 217.68L325.687 220.02L327.107 220.4L327.007 221.1L324.647 221L322.207 221.1L322.247 220.4L323.567 220L323.707 217.9L323.627 213.54L323.087 212.22L321.387 211.92L319.147 213.06L319.107 215.74L319.147 217.68L319.207 220L320.667 220.4L320.567 221.1L318.207 221L315.767 221.1L315.807 220.4L317.127 220L317.307 217.9L317.227 209.14L317.087 207.06L315.667 207.12L315.567 206.42L318.327 205.88L319.327 206.1L319.227 208.82ZM330.2 215.62L330.18 215.8L330.72 218.62L332.3 220.18L334.14 220.38L336.02 219.38L336.38 219.9L334.8 221.16L332.92 221.4L330.96 220.94L329.26 219.52L328.24 216.52L328.58 213.84L329.62 211.96L331.72 210.8L333.48 210.58L334.88 211.02L335.96 212L336.58 213.78L336.6 215.44L336.32 215.66L333.66 215.84L330.2 215.62ZM331.2 212.38L330.42 213.9L330.3 214.8L333.34 214.84L334.72 214.54L334.6 212.68L334 211.66L332.72 211.48L331.2 212.38ZM351.828 209.52L352.468 210.86L351.628 211.38L349.968 211.6L351.368 213.32L351.348 215.26L350.228 216.92L347.788 217.72L345.668 217.42L345.308 217.94L345.228 218.5L345.788 218.86L349.228 219.4L350.568 219.7L351.908 220.66L352.068 223.04L351.148 224.42L348.908 225.44L345.748 225.54L344.368 225.12L343.228 224.12L342.808 222.68L343.408 220.94L344.768 220.3L344.048 219.62V218.24L344.948 217.18L343.248 215.86L343.048 213.32L344.708 211.4L347.248 210.8L349.268 211.2L351.828 209.52ZM346.688 216.86L348.328 216.64L349.388 215.5L349.548 213.54L348.668 212.04L347.208 211.6L345.288 212.4L344.728 214.16L345.368 216.14L346.688 216.86ZM347.768 220.88L345.448 220.56L344.548 221.54L344.428 223.02L345.328 224.32L347.588 224.66L349.968 223.76L350.548 221.82L347.768 220.88ZM355.538 219.88L357.038 220.26L359.058 219.1L358.978 216.4H357.238L355.698 217.02L354.998 218.26L355.538 219.88ZM360.698 217.36L360.838 220.18L362.218 220.38L362.078 221.04L359.298 221.28L359.038 220.1H358.938L356.958 221.28H354.878L353.478 220.26L353.058 218.3L353.938 216.74L356.338 215.7L358.978 215.6L358.898 213.1L358.518 211.86L356.898 211.4L354.958 211.86L354.898 213.98L354.118 214.14L353.598 211.4L355.898 210.72L358.478 210.6L360.038 211.36L360.678 213.08L360.698 217.36ZM372.739 220.02L374.159 220.4L374.059 221.1L371.699 221L369.259 221.1L369.299 220.4L370.619 220L370.759 217.9L370.679 213.54L370.139 212.22L368.439 211.92L366.459 212.98L366.419 213.74L366.299 215.74L366.339 217.68L366.439 220L367.899 220.4L367.799 221.1L365.439 221L362.999 221.1L363.039 220.4L364.359 220L364.499 217.9L364.419 214.06L364.319 211.98L362.899 212.04L362.799 211.34L365.559 210.8L366.559 211.02L366.499 211.96L368.439 210.74L370.479 210.6L372.319 211.86L372.419 212.4L374.419 210.74L376.459 210.6L378.299 211.86L378.599 213.46L378.559 217.68L378.719 220.02L380.139 220.4L380.039 221.1L377.679 221L375.239 221.1L375.279 220.4L376.599 220L376.739 217.9L376.659 213.54L376.119 212.22L374.419 211.92L372.579 213.26L372.619 213.46L372.579 217.68L372.739 220.02ZM383.032 215.62L383.012 215.8L383.552 218.62L385.132 220.18L386.972 220.38L388.852 219.38L389.212 219.9L387.632 221.16L385.752 221.4L383.792 220.94L382.092 219.52L381.072 216.52L381.412 213.84L382.452 211.96L384.552 210.8L386.312 210.58L387.712 211.02L388.792 212L389.412 213.78L389.432 215.44L389.152 215.66L386.492 215.84L383.032 215.62ZM384.032 212.38L383.252 213.9L383.132 214.8L386.172 214.84L387.552 214.54L387.432 212.68L386.832 211.66L385.552 211.48L384.032 212.38ZM398.2 211.86L398.34 212L400.42 210.86L402.6 210.8L404.72 212.42L405.56 215.76L404.96 218.74L403.52 220.56L400.64 221.4L396.86 220.9L396.16 220.2L396.32 213.6L396.3 209.06L396.2 207.06L394.78 207.12L394.68 206.42L397.44 205.88L398.44 206.1L398.2 211.86ZM398.16 217.94L398.32 219.8L400.92 220.38L402.9 219.14L403.48 216.94L403.4 214.3L401.98 212.24L400.74 211.94L398.2 212.96L398.16 217.94ZM408.176 226.4L407.556 225.5L406.956 223.86L407.716 223.58L408.836 225.24L409.856 224.26L411.256 221.06L408.156 213.12L407.456 211.9L406.036 211.6L406.136 210.9L408.576 211L410.956 210.9L410.916 211.6L409.756 211.94L410.056 213.18L411.136 215.94L412.236 219.16H412.296L413.296 216.02L414.316 213.16L414.516 211.88L413.396 211.6L413.496 210.9L415.636 211L417.336 210.9L417.296 211.6L416.076 211.96L415.376 213.46L412.396 221.42L410.676 224.72L409.176 226.2L408.176 226.4ZM425.807 211.9H425.947L428.087 210.6L430.307 210.84L431.767 211.88L432.927 214.26L432.947 217.66L432.187 219.24L429.887 221.1L427.667 221.4L425.767 220.9L425.827 222.68L425.987 225L427.447 225.4L427.347 226.1L424.907 226L422.467 226.1L422.507 225.4L423.827 225L423.927 222.9L424.007 218.52L423.887 214.06L423.787 211.92L422.367 211.98L422.267 211.28L425.027 210.74L425.787 210.96L425.807 211.9ZM425.787 219.8L427.947 220.5L429.207 220.14L430.747 218.5L431.027 216.2L430.427 212.84L428.647 211.78L425.847 212.74L425.887 213.74L425.787 219.8ZM434.626 217.2V214.58L435.806 212.2L438.066 210.7L440.806 210.6L443.306 212.1L444.606 214.5L444.366 218.16L442.886 220.52L439.786 221.4L437.186 220.9L435.286 219.18L434.626 217.2ZM436.826 213.9L436.726 216.14L436.966 218.46L437.826 219.96L439.946 220.48L441.906 219.62L442.486 216.5L442.286 213.9L441.546 212.24L440.086 211.5L438.086 211.72L436.826 213.9ZM449.069 211.9H449.209L451.349 210.6L453.569 210.84L455.029 211.88L456.189 214.26L456.209 217.66L455.449 219.24L453.149 221.1L450.929 221.4L449.029 220.9L449.089 222.68L449.249 225L450.709 225.4L450.609 226.1L448.169 226L445.729 226.1L445.769 225.4L447.089 225L447.189 222.9L447.269 218.52L447.149 214.06L447.049 211.92L445.629 211.98L445.529 211.28L448.289 210.74L449.049 210.96L449.069 211.9ZM449.049 219.8L451.209 220.5L452.469 220.14L454.009 218.5L454.289 216.2L453.689 212.84L451.909 211.78L449.109 212.74L449.149 213.74L449.049 219.8ZM460.807 211.9H460.947L463.087 210.6L465.307 210.84L466.767 211.88L467.927 214.26L467.947 217.66L467.187 219.24L464.887 221.1L462.667 221.4L460.767 220.9L460.827 222.68L460.987 225L462.447 225.4L462.347 226.1L459.907 226L457.467 226.1L457.507 225.4L458.827 225L458.927 222.9L459.007 218.52L458.887 214.06L458.787 211.92L457.367 211.98L457.267 211.28L460.027 210.74L460.787 210.96L460.807 211.9ZM460.787 219.8L462.947 220.5L464.207 220.14L465.747 218.5L466.027 216.2L465.427 212.84L463.647 211.78L460.847 212.74L460.887 213.74L460.787 219.8ZM470.566 206.84L471.486 206.4L472.446 206.72L472.886 207.8L472.326 208.68L471.386 209.06L470.506 208.52L470.086 207.62L470.566 206.84ZM472.826 213.74L472.706 215.74L472.766 217.68L472.846 220L474.306 220.4L474.206 221.1L471.846 221L469.406 221.1L469.446 220.4L470.766 220L470.866 217.9L470.826 214.06L470.726 211.98L469.306 212.04L469.206 211.34L471.966 210.8L472.966 211.02L472.826 213.74ZM485.146 220.02L486.566 220.4L486.466 221.1L484.106 221L481.666 221.1L481.706 220.4L483.026 220L483.166 217.9L483.086 213.54L482.546 212.22L480.846 211.92L478.666 213.04L478.626 213.74L478.506 215.74L478.546 217.68L478.646 220L480.106 220.4L480.006 221.1L477.646 221L475.206 221.1L475.246 220.4L476.566 220L476.706 217.9L476.526 211.98L475.106 212.04L475.006 211.34L477.766 210.8L478.766 211.02L478.706 212.04L480.846 210.74L482.886 210.6L484.726 211.86L485.026 213.46L484.986 217.68L485.146 220.02ZM496.457 209.52L497.097 210.86L496.257 211.38L494.597 211.6L495.997 213.32L495.977 215.26L494.857 216.92L492.417 217.72L490.297 217.42L489.937 217.94L489.857 218.5L490.417 218.86L493.857 219.4L495.197 219.7L496.537 220.66L496.697 223.04L495.777 224.42L493.537 225.44L490.377 225.54L488.997 225.12L487.857 224.12L487.437 222.68L488.037 220.94L489.397 220.3L488.677 219.62V218.24L489.577 217.18L487.877 215.86L487.677 213.32L489.337 211.4L491.877 210.8L493.897 211.2L496.457 209.52ZM491.317 216.86L492.957 216.64L494.017 215.5L494.177 213.54L493.297 212.04L491.837 211.6L489.917 212.4L489.357 214.16L489.997 216.14L491.317 216.86ZM492.397 220.88L490.077 220.56L489.177 221.54L489.057 223.02L489.957 224.32L492.217 224.66L494.597 223.76L495.177 221.82L492.397 220.88ZM507.113 221.2L505.753 221.4L504.333 220.92L503.693 219.32L503.793 215.6L503.693 212.24L502.313 212.04L502.193 211.34L503.773 210.92L504.493 208.9H505.513L505.453 211.14L507.873 211.22L507.753 212.1L505.653 212.24L505.573 213.16L505.653 219.22L506.053 220.42L507.933 219.92L508.233 220.52L507.113 221.2ZM512.117 208.82L512.057 212.1L514.277 210.74L516.317 210.6L518.157 211.86L518.457 213.46L518.417 217.68L518.577 220.02L519.997 220.4L519.897 221.1L517.537 221L515.097 221.1L515.137 220.4L516.457 220L516.597 217.9L516.517 213.54L515.977 212.22L514.277 211.92L512.037 213.06L511.997 215.74L512.037 217.68L512.097 220L513.557 220.4L513.457 221.1L511.097 221L508.657 221.1L508.697 220.4L510.017 220L510.197 217.9L510.117 209.14L509.977 207.06L508.557 207.12L508.457 206.42L511.217 205.88L512.217 206.1L512.117 208.82ZM523.091 215.62L523.071 215.8L523.611 218.62L525.191 220.18L527.031 220.38L528.911 219.38L529.271 219.9L527.691 221.16L525.811 221.4L523.851 220.94L522.151 219.52L521.131 216.52L521.471 213.84L522.511 211.96L524.611 210.8L526.371 210.58L527.771 211.02L528.851 212L529.471 213.78L529.491 215.44L529.211 215.66L526.551 215.84L523.091 215.62ZM524.091 212.38L523.311 213.9L523.191 214.8L526.231 214.84L527.611 214.54L527.491 212.68L526.891 211.66L525.611 211.48L524.091 212.38ZM139.247 245.22L140.907 245.48L142.767 245.22L143.207 243.86L142.667 242.82L138.947 240.56L138.147 239.3L138.107 237.18L139.527 235.98L141.627 235.6L144.567 236.2L144.147 239.14L143.307 238.86L142.927 236.78L141.547 236.52L140.047 236.86L139.667 237.96L140.147 239.14L143.987 241.34L144.927 242.52L145.007 244.4L143.647 246L141.247 246.4L139.587 246.32L137.727 245.6L138.227 242.72L139.087 243L139.247 245.22ZM156.04 245.02L157.46 245.4L157.36 246.1L155 246L152.56 246.1L152.6 245.4L153.92 245L154.06 242.9L153.98 238.54L153.44 237.22L151.74 236.92L149.76 237.98L149.72 238.74L149.6 240.74L149.64 242.68L149.74 245L151.2 245.4L151.1 246.1L148.74 246L146.3 246.1L146.34 245.4L147.66 245L147.8 242.9L147.72 239.06L147.62 236.98L146.2 237.04L146.1 236.34L148.86 235.8L149.86 236.02L149.8 236.96L151.74 235.74L153.78 235.6L155.62 236.86L155.72 237.4L157.72 235.74L159.76 235.6L161.6 236.86L161.9 238.46L161.86 242.68L162.02 245.02L163.44 245.4L163.34 246.1L160.98 246L158.54 246.1L158.58 245.4L159.9 245L160.04 242.9L159.96 238.54L159.42 237.22L157.72 236.92L155.88 238.26L155.92 238.46L155.88 242.68L156.04 245.02ZM166.573 244.88L168.073 245.26L170.093 244.1L170.013 241.4H168.273L166.733 242.02L166.033 243.26L166.573 244.88ZM171.733 242.36L171.873 245.18L173.253 245.38L173.113 246.04L170.333 246.28L170.073 245.1H169.973L167.993 246.28H165.913L164.513 245.26L164.093 243.3L164.973 241.74L167.373 240.7L170.013 240.6L169.933 238.1L169.553 236.86L167.933 236.4L165.993 236.86L165.933 238.98L165.153 239.14L164.633 236.4L166.933 235.72L169.513 235.6L171.073 236.36L171.713 238.08L171.733 242.36ZM177.255 233.74L177.135 240.74L177.195 242.68L177.355 245L178.815 245.4L178.715 246.1L176.275 246L173.835 246.1L173.875 245.4L175.195 245L175.295 242.9L175.375 238.52L175.255 234.06L175.155 232.06L173.735 232.12L173.635 231.42L176.395 230.88L177.395 231.1L177.255 233.74ZM182.841 233.74L182.721 240.74L182.781 242.68L182.941 245L184.401 245.4L184.301 246.1L181.861 246L179.421 246.1L179.461 245.4L180.781 245L180.881 242.9L180.961 238.52L180.841 234.06L180.741 232.06L179.321 232.12L179.221 231.42L181.981 230.88L182.981 231.1L182.841 233.74ZM187.426 240.62L187.406 240.8L187.946 243.62L189.526 245.18L191.366 245.38L193.246 244.38L193.606 244.9L192.026 246.16L190.146 246.4L188.186 245.94L186.486 244.52L185.466 241.52L185.806 238.84L186.846 236.96L188.946 235.8L190.706 235.58L192.106 236.02L193.186 237L193.806 238.78L193.826 240.44L193.546 240.66L190.886 240.84L187.426 240.62ZM188.426 237.38L187.646 238.9L187.526 239.8L190.566 239.84L191.946 239.54L191.826 237.68L191.226 236.66L189.946 236.48L188.426 237.38ZM196.689 245.22L198.349 245.48L200.209 245.22L200.649 243.86L200.109 242.82L196.389 240.56L195.589 239.3L195.549 237.18L196.969 235.98L199.069 235.6L202.009 236.2L201.589 239.14L200.749 238.86L200.369 236.78L198.989 236.52L197.489 236.86L197.109 237.96L197.589 239.14L201.429 241.34L202.369 242.52L202.449 244.4L201.089 246L198.689 246.4L197.029 246.32L195.169 245.6L195.669 242.72L196.529 243L196.689 245.22ZM208.402 246.2L207.042 246.4L205.622 245.92L204.982 244.32L205.082 240.6L204.982 237.24L203.602 237.04L203.482 236.34L205.062 235.92L205.782 233.9H206.802L206.742 236.14L209.162 236.22L209.042 237.1L206.942 237.24L206.862 238.16L206.942 244.22L207.342 245.42L209.222 244.92L209.522 245.52L208.402 246.2ZM217.693 236.86L217.833 237L219.913 235.86L222.093 235.8L224.213 237.42L225.053 240.76L224.453 243.74L223.013 245.56L220.133 246.4L216.353 245.9L215.653 245.2L215.813 238.6L215.793 234.06L215.693 232.06L214.273 232.12L214.173 231.42L216.933 230.88L217.933 231.1L217.693 236.86ZM217.653 242.94L217.813 244.8L220.413 245.38L222.393 244.14L222.973 241.94L222.893 239.3L221.473 237.24L220.233 236.94L217.693 237.96L217.653 242.94ZM228.858 244.88L230.358 245.26L232.378 244.1L232.298 241.4H230.558L229.018 242.02L228.318 243.26L228.858 244.88ZM234.018 242.36L234.158 245.18L235.538 245.38L235.398 246.04L232.618 246.28L232.358 245.1H232.258L230.278 246.28H228.198L226.798 245.26L226.378 243.3L227.258 241.74L229.658 240.7L232.298 240.6L232.218 238.1L231.838 236.86L230.218 236.4L228.278 236.86L228.218 238.98L227.438 239.14L226.918 236.4L229.218 235.72L231.798 235.6L233.358 236.36L233.998 238.08L234.018 242.36ZM239.54 233.74L239.42 240.74L239.48 242.68L239.64 245L241.1 245.4L241 246.1L238.56 246L236.12 246.1L236.16 245.4L237.48 245L237.58 242.9L237.66 238.52L237.54 234.06L237.44 232.06L236.02 232.12L235.92 231.42L238.68 230.88L239.68 231.1L239.54 233.74ZM245.126 233.74L245.006 240.74L245.066 242.68L245.226 245L246.686 245.4L246.586 246.1L244.146 246L241.706 246.1L241.746 245.4L243.066 245L243.166 242.9L243.246 238.52L243.126 234.06L243.026 232.06L241.606 232.12L241.506 231.42L244.266 230.88L245.266 231.1L245.126 233.74ZM247.712 242.2V239.58L248.892 237.2L251.152 235.7L253.892 235.6L256.392 237.1L257.692 239.5L257.452 243.16L255.972 245.52L252.872 246.4L250.272 245.9L248.372 244.18L247.712 242.2ZM249.912 238.9L249.812 241.14L250.052 243.46L250.912 244.96L253.032 245.48L254.992 244.62L255.572 241.5L255.372 238.9L254.632 237.24L253.172 236.5L251.172 236.72L249.912 238.9ZM259.235 242.2V239.58L260.415 237.2L262.675 235.7L265.415 235.6L267.915 237.1L269.215 239.5L268.975 243.16L267.495 245.52L264.395 246.4L261.795 245.9L259.895 244.18L259.235 242.2ZM261.435 238.9L261.335 241.14L261.575 243.46L262.435 244.96L264.555 245.48L266.515 244.62L267.095 241.5L266.895 238.9L266.155 237.24L264.695 236.5L262.695 236.72L261.435 238.9ZM280.479 245.02L281.899 245.4L281.799 246.1L279.439 246L276.999 246.1L277.039 245.4L278.359 245L278.499 242.9L278.419 238.54L277.879 237.22L276.179 236.92L273.999 238.04L273.959 238.74L273.839 240.74L273.879 242.68L273.979 245L275.439 245.4L275.339 246.1L272.979 246L270.539 246.1L270.579 245.4L271.899 245L272.039 242.9L271.859 236.98L270.439 237.04L270.339 236.34L273.099 235.8L274.099 236.02L274.039 237.04L276.179 235.74L278.219 235.6L280.059 236.86L280.359 238.46L280.319 242.68L280.479 245.02ZM284.169 245.22L285.829 245.48L287.689 245.22L288.129 243.86L287.589 242.82L283.869 240.56L283.069 239.3L283.029 237.18L284.449 235.98L286.549 235.6L289.489 236.2L289.069 239.14L288.229 238.86L287.849 236.78L286.469 236.52L284.969 236.86L284.589 237.96L285.069 239.14L288.909 241.34L289.849 242.52L289.929 244.4L288.569 246L286.169 246.4L284.509 246.32L282.649 245.6L283.149 242.72L284.009 243L284.169 245.22ZM298.428 244.88L299.928 245.26L301.948 244.1L301.868 241.4H300.128L298.588 242.02L297.888 243.26L298.428 244.88ZM303.588 242.36L303.728 245.18L305.108 245.38L304.968 246.04L302.188 246.28L301.928 245.1H301.828L299.848 246.28H297.768L296.368 245.26L295.948 243.3L296.828 241.74L299.228 240.7L301.868 240.6L301.788 238.1L301.408 236.86L299.788 236.4L297.848 236.86L297.788 238.98L297.008 239.14L296.488 236.4L298.788 235.72L301.368 235.6L302.928 236.36L303.568 238.08L303.588 242.36ZM315.83 245.02L317.25 245.4L317.15 246.1L314.79 246L312.35 246.1L312.39 245.4L313.71 245L313.85 242.9L313.77 238.54L313.23 237.22L311.53 236.92L309.35 238.04L309.31 238.74L309.19 240.74L309.23 242.68L309.33 245L310.79 245.4L310.69 246.1L308.33 246L305.89 246.1L305.93 245.4L307.25 245L307.39 242.9L307.21 236.98L305.79 237.04L305.69 236.34L308.45 235.8L309.45 236.02L309.39 237.04L311.53 235.74L313.57 235.6L315.41 236.86L315.71 238.46L315.67 242.68L315.83 245.02ZM325.441 245.1H325.341L323.121 246.4L320.901 246.16L319.441 245.12L318.281 242.74L318.261 239.34L319.021 237.76L321.321 235.9L323.541 235.6L325.481 236.1L325.361 232.28L323.701 232.12L323.801 231.42L326.561 230.88L327.361 231.1L327.221 238.84L327.361 245.18L328.741 245.38L328.601 246.04L325.821 246.28L325.441 245.1ZM322.501 245.38L325.441 244.26L325.481 237.2L323.261 236.5L322.001 236.86L320.461 238.5L320.181 240.8L320.781 244.16L322.501 245.38ZM337.886 237.64H337.966L339.206 236.22L340.566 235.62L342.066 236L341.726 238.98L341.026 238.84L340.526 236.78L339.226 237.2L337.806 238.86L337.706 240.74L337.766 242.68L337.846 245L339.846 245.4L339.746 246.1L336.846 246L334.406 246.1L334.446 245.4L335.766 245L335.866 242.9L335.826 239.06L335.726 236.98L334.306 237.04L334.206 236.34L336.966 235.8L337.966 236.02L337.886 237.64ZM345.141 240.62L345.121 240.8L345.661 243.62L347.241 245.18L349.081 245.38L350.961 244.38L351.321 244.9L349.741 246.16L347.861 246.4L345.901 245.94L344.201 244.52L343.181 241.52L343.521 238.84L344.561 236.96L346.661 235.8L348.421 235.58L349.821 236.02L350.901 237L351.521 238.78L351.541 240.44L351.261 240.66L348.601 240.84L345.141 240.62ZM346.141 237.38L345.361 238.9L345.241 239.8L348.281 239.84L349.661 239.54L349.541 237.68L348.941 236.66L347.661 236.48L346.141 237.38ZM362.564 245.02L363.984 245.4L363.884 246.1L361.524 246L359.084 246.1L359.124 245.4L360.444 245L360.584 242.9L360.504 238.54L359.964 237.22L358.264 236.92L356.284 237.98L356.244 238.74L356.124 240.74L356.164 242.68L356.264 245L357.724 245.4L357.624 246.1L355.264 246L352.824 246.1L352.864 245.4L354.184 245L354.324 242.9L354.244 239.06L354.144 236.98L352.724 237.04L352.624 236.34L355.384 235.8L356.384 236.02L356.324 236.96L358.264 235.74L360.304 235.6L362.144 236.86L362.244 237.4L364.244 235.74L366.284 235.6L368.124 236.86L368.424 238.46L368.384 242.68L368.544 245.02L369.964 245.4L369.864 246.1L367.504 246L365.064 246.1L365.104 245.4L366.424 245L366.564 242.9L366.484 238.54L365.944 237.22L364.244 236.92L362.404 238.26L362.444 238.46L362.404 242.68L362.564 245.02ZM370.856 242.2V239.58L372.036 237.2L374.296 235.7L377.036 235.6L379.536 237.1L380.836 239.5L380.596 243.16L379.116 245.52L376.016 246.4L373.416 245.9L371.516 244.18L370.856 242.2ZM373.056 238.9L372.956 241.14L373.196 243.46L374.056 244.96L376.176 245.48L378.136 244.62L378.716 241.5L378.516 238.9L377.776 237.24L376.316 236.5L374.316 236.72L373.056 238.9ZM383.29 238.72L382.39 236.96L381.05 236.6L381.15 235.9L383.59 236L386.17 235.9L386.13 236.6L384.87 237L385.19 238.16L386.49 241.5L387.29 244.42H387.35L387.89 242.38L389.47 238.22L389.79 236.94L388.37 236.6L388.47 235.9L390.29 236L392.41 235.9L392.37 236.6L391.13 237L390.27 238.84L387.81 245.42L387.21 246.46L386.55 246.6L383.29 238.72ZM394.199 231.84L395.119 231.4L396.079 231.72L396.519 232.8L395.959 233.68L395.019 234.06L394.139 233.52L393.719 232.62L394.199 231.84ZM396.459 238.74L396.339 240.74L396.399 242.68L396.479 245L397.939 245.4L397.839 246.1L395.479 246L393.039 246.1L393.079 245.4L394.399 245L394.499 242.9L394.459 239.06L394.359 236.98L392.939 237.04L392.839 236.34L395.599 235.8L396.599 236.02L396.459 238.74ZM408.779 245.02L410.199 245.4L410.099 246.1L407.739 246L405.299 246.1L405.339 245.4L406.659 245L406.799 242.9L406.719 238.54L406.179 237.22L404.479 236.92L402.299 238.04L402.259 238.74L402.139 240.74L402.179 242.68L402.279 245L403.739 245.4L403.639 246.1L401.279 246L398.839 246.1L398.879 245.4L400.199 245L400.339 242.9L400.159 236.98L398.739 237.04L398.639 236.34L401.399 235.8L402.399 236.02L402.339 237.04L404.479 235.74L406.519 235.6L408.359 236.86L408.659 238.46L408.619 242.68L408.779 245.02ZM420.09 234.52L420.73 235.86L419.89 236.38L418.23 236.6L419.63 238.32L419.61 240.26L418.49 241.92L416.05 242.72L413.93 242.42L413.57 242.94L413.49 243.5L414.05 243.86L417.49 244.4L418.83 244.7L420.17 245.66L420.33 248.04L419.41 249.42L417.17 250.44L414.01 250.54L412.63 250.12L411.49 249.12L411.07 247.68L411.67 245.94L413.03 245.3L412.31 244.62V243.24L413.21 242.18L411.51 240.86L411.31 238.32L412.97 236.4L415.51 235.8L417.53 236.2L420.09 234.52ZM414.95 241.86L416.59 241.64L417.65 240.5L417.81 238.54L416.93 237.04L415.47 236.6L413.55 237.4L412.99 239.16L413.63 241.14L414.95 241.86ZM416.03 245.88L413.71 245.56L412.81 246.54L412.69 248.02L413.59 249.32L415.85 249.66L418.23 248.76L418.81 246.82L416.03 245.88ZM430.745 246.2L429.385 246.4L427.965 245.92L427.325 244.32L427.425 240.6L427.325 237.24L425.945 237.04L425.825 236.34L427.405 235.92L428.125 233.9H429.145L429.085 236.14L431.505 236.22L431.385 237.1L429.285 237.24L429.205 238.16L429.285 244.22L429.685 245.42L431.565 244.92L431.865 245.52L430.745 246.2ZM435.75 233.82L435.69 237.1L437.91 235.74L439.95 235.6L441.79 236.86L442.09 238.46L442.05 242.68L442.21 245.02L443.63 245.4L443.53 246.1L441.17 246L438.73 246.1L438.77 245.4L440.09 245L440.23 242.9L440.15 238.54L439.61 237.22L437.91 236.92L435.67 238.06L435.63 240.74L435.67 242.68L435.73 245L437.19 245.4L437.09 246.1L434.73 246L432.29 246.1L432.33 245.4L433.65 245L433.83 242.9L433.75 234.14L433.61 232.06L432.19 232.12L432.09 231.42L434.85 230.88L435.85 231.1L435.75 233.82ZM446.723 240.62L446.703 240.8L447.243 243.62L448.823 245.18L450.663 245.38L452.543 244.38L452.903 244.9L451.323 246.16L449.443 246.4L447.483 245.94L445.783 244.52L444.763 241.52L445.103 238.84L446.143 236.96L448.243 235.8L450.003 235.58L451.403 236.02L452.483 237L453.103 238.78L453.123 240.44L452.843 240.66L450.183 240.84L446.723 240.62ZM447.723 237.38L446.943 238.9L446.823 239.8L449.863 239.84L451.243 239.54L451.123 237.68L450.523 236.66L449.243 236.48L447.723 237.38ZM464.146 245.02L465.566 245.4L465.466 246.1L463.106 246L460.666 246.1L460.706 245.4L462.026 245L462.166 242.9L462.086 238.54L461.546 237.22L459.846 236.92L457.866 237.98L457.826 238.74L457.706 240.74L457.746 242.68L457.846 245L459.306 245.4L459.206 246.1L456.846 246L454.406 246.1L454.446 245.4L455.766 245L455.906 242.9L455.826 239.06L455.726 236.98L454.306 237.04L454.206 236.34L456.966 235.8L457.966 236.02L457.906 236.96L459.846 235.74L461.886 235.6L463.726 236.86L463.826 237.4L465.826 235.74L467.866 235.6L469.706 236.86L470.006 238.46L469.966 242.68L470.126 245.02L471.546 245.4L471.446 246.1L469.086 246L466.646 246.1L466.686 245.4L468.006 245L468.146 242.9L468.066 238.54L467.526 237.22L465.826 236.92L463.986 238.26L464.026 238.46L463.986 242.68L464.146 245.02ZM479.424 244.88L480.924 245.26L482.944 244.1L482.864 241.4H481.124L479.584 242.02L478.884 243.26L479.424 244.88ZM484.584 242.36L484.724 245.18L486.104 245.38L485.964 246.04L483.184 246.28L482.924 245.1H482.824L480.844 246.28H478.764L477.364 245.26L476.944 243.3L477.824 241.74L480.224 240.7L482.864 240.6L482.784 238.1L482.404 236.86L480.784 236.4L478.844 236.86L478.784 238.98L478.004 239.14L477.484 236.4L479.784 235.72L482.364 235.6L483.924 236.36L484.564 238.08L484.584 242.36ZM490.106 233.74L489.986 240.74L490.046 242.68L490.206 245L491.666 245.4L491.566 246.1L489.126 246L486.686 246.1L486.726 245.4L488.046 245L488.146 242.9L488.226 238.52L488.106 234.06L488.006 232.06L486.586 232.12L486.486 231.42L489.246 230.88L490.246 231.1L490.106 233.74ZM495.692 233.74L495.572 240.74L495.632 242.68L495.792 245L497.252 245.4L497.152 246.1L494.712 246L492.272 246.1L492.312 245.4L493.632 245L493.732 242.9L493.812 238.52L493.692 234.06L493.592 232.06L492.172 232.12L492.072 231.42L494.832 230.88L495.832 231.1L495.692 233.74ZM498.858 244.2L499.778 243.84L500.698 244.22L500.978 245.22L500.498 246.06L499.498 246.34L498.738 245.86L498.398 244.94L498.858 244.2Z" fill="black"/>
</svg>
