<svg width="159" height="64" viewBox="0 0 159 64" fill="none" xmlns="http://www.w3.org/2000/svg">
<g filter="url(#filter0_d)">
<rect x="4" width="150" height="56" rx="20" fill="#C4C4C4"/>
<path d="M29.8418 28.4277H23.6797V33.4668H30.8379V35H21.8047V20.7812H30.7402V22.3242H23.6797V26.8945H29.8418V28.4277ZM34.5977 24.4336L34.6562 25.7617C35.4635 24.7461 36.5182 24.2383 37.8203 24.2383C40.0534 24.2383 41.1797 25.498 41.1992 28.0176V35H39.3926V28.0078C39.3861 27.2461 39.2103 26.6829 38.8652 26.3184C38.5267 25.9538 37.9961 25.7715 37.2734 25.7715C36.6875 25.7715 36.1732 25.9277 35.7305 26.2402C35.2878 26.5527 34.9427 26.9629 34.6953 27.4707V35H32.8887V24.4336H34.5977ZM43.4844 29.6289C43.4844 28.0078 43.8685 26.7057 44.6367 25.7227C45.4049 24.7331 46.4108 24.2383 47.6543 24.2383C48.8913 24.2383 49.8711 24.6615 50.5938 25.5078V20H52.4004V35H50.7402L50.6523 33.8672C49.9297 34.7526 48.9238 35.1953 47.6348 35.1953C46.4108 35.1953 45.4115 34.694 44.6367 33.6914C43.8685 32.6888 43.4844 31.3802 43.4844 29.7656V29.6289ZM45.291 29.834C45.291 31.0319 45.5384 31.9694 46.0332 32.6465C46.528 33.3236 47.2116 33.6621 48.084 33.6621C49.2298 33.6621 50.0664 33.1478 50.5938 32.1191V27.2656C50.0534 26.2695 49.2233 25.7715 48.1035 25.7715C47.2181 25.7715 46.528 26.1133 46.0332 26.7969C45.5384 27.4805 45.291 28.4928 45.291 29.834ZM57.1758 35H55.3691V24.4336H57.1758V35ZM55.2227 21.6309C55.2227 21.3379 55.3105 21.0905 55.4863 20.8887C55.6686 20.6868 55.9355 20.5859 56.2871 20.5859C56.6387 20.5859 56.9056 20.6868 57.0879 20.8887C57.2702 21.0905 57.3613 21.3379 57.3613 21.6309C57.3613 21.9238 57.2702 22.168 57.0879 22.3633C56.9056 22.5586 56.6387 22.6562 56.2871 22.6562C55.9355 22.6562 55.6686 22.5586 55.4863 22.3633C55.3105 22.168 55.2227 21.9238 55.2227 21.6309ZM61.7852 24.4336L61.8438 25.7617C62.651 24.7461 63.7057 24.2383 65.0078 24.2383C67.2409 24.2383 68.3672 25.498 68.3867 28.0176V35H66.5801V28.0078C66.5736 27.2461 66.3978 26.6829 66.0527 26.3184C65.7142 25.9538 65.1836 25.7715 64.4609 25.7715C63.875 25.7715 63.3607 25.9277 62.918 26.2402C62.4753 26.5527 62.1302 26.9629 61.8828 27.4707V35H60.0762V24.4336H61.7852ZM70.6816 29.6289C70.6816 27.9818 71.0625 26.6732 71.8242 25.7031C72.5859 24.7266 73.5951 24.2383 74.8516 24.2383C76.1406 24.2383 77.1465 24.694 77.8691 25.6055L77.957 24.4336H79.6074V34.7461C79.6074 36.1133 79.2005 37.1908 78.3867 37.9785C77.5794 38.7663 76.4922 39.1602 75.125 39.1602C74.3633 39.1602 73.6178 38.9974 72.8887 38.6719C72.1595 38.3464 71.6029 37.9004 71.2188 37.334L72.1562 36.25C72.931 37.207 73.8783 37.6855 74.998 37.6855C75.877 37.6855 76.5605 37.4382 77.0488 36.9434C77.5436 36.4486 77.791 35.752 77.791 34.8535V33.9453C77.0684 34.7786 76.082 35.1953 74.832 35.1953C73.5951 35.1953 72.5924 34.6973 71.8242 33.7012C71.0625 32.7051 70.6816 31.3477 70.6816 29.6289ZM72.498 29.834C72.498 31.0254 72.7422 31.9629 73.2305 32.6465C73.7188 33.3236 74.4023 33.6621 75.2812 33.6621C76.4206 33.6621 77.2572 33.1445 77.791 32.1094V27.2852C77.2376 26.276 76.4076 25.7715 75.3008 25.7715C74.4219 25.7715 73.735 26.1133 73.2402 26.7969C72.7454 27.4805 72.498 28.4928 72.498 29.834ZM98.0449 30.4883C97.8691 31.9922 97.3125 33.1543 96.375 33.9746C95.444 34.7884 94.2038 35.1953 92.6543 35.1953C90.9746 35.1953 89.627 34.5931 88.6113 33.3887C87.6022 32.1842 87.0977 30.5729 87.0977 28.5547V27.1875C87.0977 25.8659 87.332 24.7038 87.8008 23.7012C88.276 22.6986 88.9466 21.9303 89.8125 21.3965C90.6784 20.8561 91.681 20.5859 92.8203 20.5859C94.3307 20.5859 95.5417 21.0091 96.4531 21.8555C97.3646 22.6953 97.8952 23.8607 98.0449 25.3516H96.1602C95.9974 24.2188 95.6426 23.3984 95.0957 22.8906C94.5553 22.3828 93.7969 22.1289 92.8203 22.1289C91.6224 22.1289 90.6816 22.5716 89.998 23.457C89.321 24.3424 88.9824 25.6022 88.9824 27.2363V28.6133C88.9824 30.1562 89.3047 31.3835 89.9492 32.2949C90.5938 33.2064 91.4954 33.6621 92.6543 33.6621C93.696 33.6621 94.4935 33.4277 95.0469 32.959C95.6068 32.4837 95.9779 31.6602 96.1602 30.4883H98.0449ZM105.438 26.0547C105.164 26.0091 104.868 25.9863 104.549 25.9863C103.364 25.9863 102.56 26.4909 102.137 27.5V35H100.33V24.4336H102.088L102.117 25.6543C102.71 24.7103 103.549 24.2383 104.637 24.2383C104.988 24.2383 105.255 24.2839 105.438 24.375V26.0547ZM111.297 35.1953C109.865 35.1953 108.699 34.7266 107.801 33.7891C106.902 32.8451 106.453 31.5853 106.453 30.0098V29.6777C106.453 28.6296 106.652 27.6953 107.049 26.875C107.452 26.0482 108.012 25.4036 108.729 24.9414C109.451 24.4727 110.232 24.2383 111.072 24.2383C112.446 24.2383 113.514 24.6908 114.275 25.5957C115.037 26.5007 115.418 27.7962 115.418 29.4824V30.2344H108.26C108.286 31.276 108.589 32.1191 109.168 32.7637C109.754 33.4017 110.496 33.7207 111.395 33.7207C112.033 33.7207 112.573 33.5905 113.016 33.3301C113.458 33.0697 113.846 32.7246 114.178 32.2949L115.281 33.1543C114.396 34.515 113.068 35.1953 111.297 35.1953ZM111.072 25.7227C110.343 25.7227 109.731 25.9896 109.236 26.5234C108.742 27.0508 108.436 27.793 108.318 28.75H113.611V28.6133C113.559 27.6953 113.312 26.9857 112.869 26.4844C112.426 25.9766 111.827 25.7227 111.072 25.7227ZM117.078 29.6289C117.078 28.0078 117.462 26.7057 118.23 25.7227C118.999 24.7331 120.005 24.2383 121.248 24.2383C122.485 24.2383 123.465 24.6615 124.188 25.5078V20H125.994V35H124.334L124.246 33.8672C123.523 34.7526 122.518 35.1953 121.229 35.1953C120.005 35.1953 119.005 34.694 118.23 33.6914C117.462 32.6888 117.078 31.3802 117.078 29.7656V29.6289ZM118.885 29.834C118.885 31.0319 119.132 31.9694 119.627 32.6465C120.122 33.3236 120.805 33.6621 121.678 33.6621C122.824 33.6621 123.66 33.1478 124.188 32.1191V27.2656C123.647 26.2695 122.817 25.7715 121.697 25.7715C120.812 25.7715 120.122 26.1133 119.627 26.7969C119.132 27.4805 118.885 28.4928 118.885 29.834ZM130.77 35H128.963V24.4336H130.77V35ZM128.816 21.6309C128.816 21.3379 128.904 21.0905 129.08 20.8887C129.262 20.6868 129.529 20.5859 129.881 20.5859C130.232 20.5859 130.499 20.6868 130.682 20.8887C130.864 21.0905 130.955 21.3379 130.955 21.6309C130.955 21.9238 130.864 22.168 130.682 22.3633C130.499 22.5586 130.232 22.6562 129.881 22.6562C129.529 22.6562 129.262 22.5586 129.08 22.3633C128.904 22.168 128.816 21.9238 128.816 21.6309ZM136.121 21.875V24.4336H138.094V25.8301H136.121V32.3828C136.121 32.806 136.209 33.125 136.385 33.3398C136.561 33.5482 136.86 33.6523 137.283 33.6523C137.492 33.6523 137.778 33.6133 138.143 33.5352V35C137.667 35.1302 137.205 35.1953 136.756 35.1953C135.949 35.1953 135.34 34.9512 134.93 34.4629C134.52 33.9746 134.314 33.2812 134.314 32.3828V25.8301H132.391V24.4336H134.314V21.875H136.121Z" fill="#FEE500"/>
</g>
<defs>
<filter id="filter0_d" x="0" y="0" width="159" height="64" filterUnits="userSpaceOnUse" color-interpolation-filters="sRGB">
<feFlood flood-opacity="0" result="BackgroundImageFix"/>
<feColorMatrix in="SourceAlpha" type="matrix" values="0 0 0 0 0 0 0 0 0 0 0 0 0 0 0 0 0 0 127 0"/>
<feOffset dy="4"/>
<feGaussianBlur stdDeviation="2"/>
<feColorMatrix type="matrix" values="0 0 0 0 0 0 0 0 0 0 0 0 0 0 0 0 0 0 0.25 0"/>
<feBlend mode="normal" in2="BackgroundImageFix" result="effect1_dropShadow"/>
<feBlend mode="normal" in="SourceGraphic" in2="effect1_dropShadow" result="shape"/>
</filter>
</defs>
</svg>
