<svg width="640" height="480" viewBox="0 0 640 480" fill="none" xmlns="http://www.w3.org/2000/svg">
<rect width="640" height="480" fill="#7DF7FF"/>
<g filter="url(#filter0_d)">
<rect x="430" y="334" width="150" height="56" rx="20" fill="#C4C4C4"/>
<path d="M463.099 369H461.215V362.428H454.047V369H452.172V354.781H454.047V360.895H461.215V354.781H463.099V369ZM465.668 363.619C465.668 362.584 465.869 361.653 466.273 360.826C466.683 359.999 467.25 359.361 467.972 358.912C468.702 358.463 469.532 358.238 470.463 358.238C471.901 358.238 473.063 358.736 473.949 359.732C474.841 360.729 475.287 362.053 475.287 363.707V363.834C475.287 364.863 475.088 365.787 474.691 366.607C474.3 367.421 473.737 368.056 473.002 368.512C472.272 368.967 471.433 369.195 470.482 369.195C469.05 369.195 467.888 368.697 466.996 367.701C466.11 366.705 465.668 365.387 465.668 363.746V363.619ZM467.484 363.834C467.484 365.006 467.754 365.947 468.295 366.656C468.841 367.366 469.571 367.721 470.482 367.721C471.4 367.721 472.129 367.363 472.67 366.646C473.21 365.924 473.48 364.915 473.48 363.619C473.48 362.46 473.203 361.523 472.65 360.807C472.103 360.084 471.374 359.723 470.463 359.723C469.571 359.723 468.851 360.077 468.304 360.787C467.758 361.497 467.484 362.512 467.484 363.834ZM486.908 366.51L488.939 358.434H490.746L487.67 369H486.205L483.636 360.992L481.136 369H479.672L476.605 358.434H478.402L480.482 366.344L482.943 358.434H484.398L486.908 366.51ZM507.269 356.324H502.699V369H500.834V356.324H496.273V354.781H507.269V356.324ZM507.64 363.619C507.64 362.584 507.842 361.653 508.246 360.826C508.656 359.999 509.222 359.361 509.945 358.912C510.674 358.463 511.504 358.238 512.435 358.238C513.874 358.238 515.036 358.736 515.922 359.732C516.813 360.729 517.259 362.053 517.259 363.707V363.834C517.259 364.863 517.061 365.787 516.664 366.607C516.273 367.421 515.71 368.056 514.974 368.512C514.245 368.967 513.405 369.195 512.455 369.195C511.022 369.195 509.86 368.697 508.968 367.701C508.083 366.705 507.64 365.387 507.64 363.746V363.619ZM509.457 363.834C509.457 365.006 509.727 365.947 510.267 366.656C510.814 367.366 511.543 367.721 512.455 367.721C513.373 367.721 514.102 367.363 514.642 366.646C515.183 365.924 515.453 364.915 515.453 363.619C515.453 362.46 515.176 361.523 514.623 360.807C514.076 360.084 513.347 359.723 512.435 359.723C511.543 359.723 510.824 360.077 510.277 360.787C509.73 361.497 509.457 362.512 509.457 363.834ZM526.644 363.434V369H524.769V354.781H530.013C531.569 354.781 532.787 355.178 533.666 355.973C534.551 356.767 534.994 357.818 534.994 359.127C534.994 360.507 534.561 361.572 533.695 362.32C532.836 363.062 531.602 363.434 529.994 363.434H526.644ZM526.644 361.9H530.013C531.016 361.9 531.784 361.666 532.318 361.197C532.852 360.722 533.119 360.038 533.119 359.146C533.119 358.3 532.852 357.623 532.318 357.115C531.784 356.607 531.052 356.344 530.121 356.324H526.644V361.9ZM539.066 369H537.259V354H539.066V369ZM548.49 369C548.386 368.792 548.301 368.421 548.236 367.887C547.396 368.759 546.394 369.195 545.228 369.195C544.187 369.195 543.33 368.902 542.66 368.316C541.996 367.724 541.664 366.975 541.664 366.07C541.664 364.97 542.08 364.117 542.914 363.512C543.754 362.9 544.932 362.594 546.449 362.594H548.207V361.764C548.207 361.132 548.018 360.631 547.64 360.26C547.263 359.882 546.706 359.693 545.97 359.693C545.326 359.693 544.786 359.856 544.349 360.182C543.913 360.507 543.695 360.901 543.695 361.363H541.879C541.879 360.836 542.064 360.328 542.435 359.84C542.813 359.345 543.321 358.954 543.959 358.668C544.603 358.382 545.31 358.238 546.078 358.238C547.295 358.238 548.249 358.544 548.939 359.156C549.629 359.762 549.987 360.598 550.013 361.666V366.529C550.013 367.499 550.137 368.271 550.384 368.844V369H548.49ZM545.492 367.623C546.058 367.623 546.595 367.477 547.103 367.184C547.611 366.891 547.979 366.51 548.207 366.041V363.873H546.791C544.577 363.873 543.47 364.521 543.47 365.816C543.47 366.383 543.659 366.826 544.037 367.145C544.414 367.464 544.899 367.623 545.492 367.623ZM556.146 366.354L558.607 358.434H560.541L556.293 370.631C555.635 372.389 554.59 373.268 553.158 373.268L552.816 373.238L552.142 373.111V371.646L552.631 371.686C553.243 371.686 553.718 371.562 554.056 371.314C554.401 371.067 554.685 370.615 554.906 369.957L555.306 368.883L551.537 358.434H553.509L556.146 366.354Z" fill="#FEE500"/>
</g>
<g filter="url(#filter1_d)">
<rect x="430" y="249" width="150" height="56" rx="20" fill="#C4C4C4"/>
<path d="M481.064 277.662C479.456 277.2 478.285 276.633 477.549 275.963C476.82 275.286 476.455 274.452 476.455 273.463C476.455 272.343 476.901 271.419 477.793 270.689C478.691 269.954 479.857 269.586 481.289 269.586C482.266 269.586 483.135 269.775 483.896 270.152C484.665 270.53 485.257 271.051 485.674 271.715C486.097 272.379 486.309 273.105 486.309 273.893H484.424C484.424 273.033 484.15 272.359 483.604 271.871C483.057 271.376 482.285 271.129 481.289 271.129C480.365 271.129 479.642 271.334 479.121 271.744C478.607 272.148 478.35 272.711 478.35 273.434C478.35 274.013 478.594 274.505 479.082 274.908C479.577 275.305 480.413 275.67 481.592 276.002C482.777 276.334 483.701 276.702 484.365 277.105C485.036 277.503 485.531 277.968 485.85 278.502C486.175 279.036 486.338 279.664 486.338 280.387C486.338 281.539 485.889 282.464 484.99 283.16C484.092 283.85 482.891 284.195 481.387 284.195C480.41 284.195 479.499 284.01 478.652 283.639C477.806 283.261 477.152 282.747 476.689 282.096C476.234 281.445 476.006 280.706 476.006 279.879H477.891C477.891 280.738 478.206 281.419 478.838 281.92C479.476 282.415 480.326 282.662 481.387 282.662C482.376 282.662 483.135 282.46 483.662 282.057C484.189 281.653 484.453 281.103 484.453 280.406C484.453 279.71 484.209 279.173 483.721 278.795C483.232 278.411 482.347 278.033 481.064 277.662ZM498.574 271.324H494.004V284H492.139V271.324H487.578V269.781H498.574V271.324ZM507.754 280.289H501.797L500.459 284H498.525L503.955 269.781H505.596L511.035 284H509.111L507.754 280.289ZM502.363 278.746H507.197L504.775 272.096L502.363 278.746ZM518.164 278.248H514.824V284H512.939V269.781H517.646C519.248 269.781 520.479 270.146 521.338 270.875C522.204 271.604 522.637 272.665 522.637 274.059C522.637 274.944 522.396 275.715 521.914 276.373C521.439 277.031 520.775 277.522 519.922 277.848L523.262 283.883V284H521.25L518.164 278.248ZM514.824 276.715H517.705C518.636 276.715 519.375 276.474 519.922 275.992C520.475 275.51 520.752 274.866 520.752 274.059C520.752 273.18 520.488 272.506 519.961 272.037C519.44 271.568 518.685 271.331 517.695 271.324H514.824V276.715ZM534.316 271.324H529.746V284H527.881V271.324H523.32V269.781H534.316V271.324Z" fill="#FEE500"/>
</g>
<rect x="94" y="355" width="20" height="100" rx="10" fill="black"/>
<g filter="url(#filter2_d)">
<circle cx="104" cy="305" r="40" fill="#FF7E96"/>
</g>
<g filter="url(#filter3_d)">
<circle cx="366" cy="68" r="20" fill="#FF7E96"/>
</g>
<g filter="url(#filter4_d)">
<circle cx="405" cy="145" r="10" fill="#FF7E96"/>
</g>
<g filter="url(#filter5_d)">
<circle cx="524" cy="110" r="80" fill="#FF7E96"/>
</g>
<rect y="430" width="640" height="50" fill="#C4C4C4"/>
<path d="M60.5492 162.705L61.4218 159.629L59.8705 155.647L57.0527 154.221L43.2812 152.031L39.4333 147.915L38.2961 143.527L39.603 139.118L45.1174 134.762L52.2155 132.791L54.2698 131.839L54.7462 134.271L56.9419 140.163L55.4044 141.131L52.0646 135.604L46.4795 136.82L42.5477 140.192L42.5938 143.546L44.9816 147.019L58.6137 149.107L63.2156 151.365L65.9899 158.426L64.0928 164.02L57.9876 167.877L49.282 169.922L47.0471 170.377L46.7677 168.487L45.023 162.43L46.5606 161.462L49.4493 167.153L55.2969 166.098L60.5492 162.705ZM98.6475 149.502L102.449 149.14L102.798 150.801L97.2131 152.578L91.1158 155.053L90.6314 153.441L93.9115 151.226L89.6016 137.981L81.7614 140.579L73.5892 143.809L78.6823 156.82L82.6026 156.364L82.759 158.197L77.3668 159.802L71.3474 162.35L71.0106 160.583L74.262 158.429L69.3284 144.032L64.215 131.386L60.4135 131.748L59.9824 129.862L65.6494 128.31L71.6646 125.61L72.2311 127.447L68.951 129.662L72.6863 141.328L80.9898 138.459L88.6987 135.5L84.0613 124.163L80.2598 124.525L79.8287 122.638L85.4957 121.087L91.5109 118.386L92.0774 120.224L88.7973 122.439L93.0087 135.413L98.6475 149.502ZM113.688 110.059L121.878 111.369L127.173 115.674L130.829 122.771L131.943 132.99L128.058 140.841L121.76 144.87L113.862 145.905L106.168 142.168L103.136 138.47L99.5741 130.367L99.363 123.753L100.952 118.015L106.561 112.653L113.688 110.059ZM120.985 142.598L126.024 139.742L127.309 131.204L125.945 124.651L123.102 118.943L119.004 114.561L112.893 112.647L107.222 115.171L104.431 120.273L104.259 123.452L104.634 127.708L108.065 136.574L114.169 142.116L120.985 142.598ZM147.649 97.6986L155.839 99.0085L161.134 103.313L164.79 110.41L165.905 120.63L162.019 128.48L155.721 132.509L147.823 133.545L140.129 129.807L137.097 126.109L133.535 118.006L133.324 111.392L134.914 105.654L140.522 100.292L147.649 97.6986ZM154.946 130.237L159.985 127.381L161.27 118.843L159.907 112.29L157.063 106.583L152.965 102.2L146.854 100.287L141.183 102.81L138.392 107.913L138.22 111.091L138.595 115.348L142.026 124.213L148.13 129.755L154.946 130.237ZM166.167 91.7248L183.217 85.5192L188.33 83.1473L188.786 86.5058L190.584 92.2876L188.558 93.1781L185.489 86.9907L177.448 89.4577L182.558 104.761L185.915 113.142L187.618 117.12L191.501 116.983L191.76 118.677L186.093 120.228L180.078 122.929L179.594 121.317L182.898 118.888L181.252 114.226L176.906 101.301L172.712 91.1815L165.372 94.3127L166.998 101.025L164.874 101.645L162.535 96.0605L160.725 93.1945L166.167 91.7248ZM207.777 105.134L209.541 109.14L213.162 108.844L213.593 110.73L207.926 112.282L201.911 114.982L201.345 113.145L204.399 111.012L202.942 106.025L199.74 96.668L196.371 87.8315L194.594 83.9321L190.973 84.2284L190.542 82.3421L196.209 80.7903L202.224 78.0901L202.791 79.9272L199.691 82.077L200.804 86.116L203.923 95.2479L207.777 105.134ZM231.836 67.8231L236.634 65.5662L237.2 67.4032L234.006 69.4341L235.028 72.9442L245.19 99.7407L244.001 100.684L242.742 99.6102L226.831 89.7193L216.7 83.4971L213.648 80.7258L213.558 80.7587L215.089 84.5434L220.999 100.781L222.439 104.599L226.163 104.163L226.578 106.004L221.677 107.277L217.241 109.402L216.674 107.565L219.479 105.727L218.428 101.717L210.24 78.2376L206.213 78.6817L205.782 76.7954L211.449 75.2435L213.704 74.4227L215.985 76.7595L233.733 88.3312L239.754 93.0865L239.844 93.0537L238.223 88.74L232.687 73.9496L231.164 70.4684L227.593 70.9L227.161 69.0137L231.836 67.8231ZM271.709 86.0022L268.319 77.5307L264.517 77.8927L264.086 76.0064L269.934 74.3889L275.317 71.9186L276.2 73.6407L273.055 75.8069L276.154 85.3038L272.345 88.7332L264.136 92.8448L254.134 91.8881L248.814 87.2351L245.794 81.7449L244.119 77.1442L244.404 70.3489L248.22 62.7282L253.775 58.7651L258.827 56.9264L266.369 56.1737L266.394 58.7696L267.749 64.4572L266.084 65.2163L262.748 59.2792L259.099 59.637L253.686 61.6071L249.022 69.8431L250.226 77.7821L253.352 84.4083L257.725 88.2824L263.762 90.2736L270.885 86.9662L271.709 86.0022ZM88.111 216.677L84.7211 208.205L80.9197 208.567L80.4885 206.681L86.3359 205.064L91.7197 202.593L92.6019 204.315L89.4572 206.482L92.5562 215.978L88.7474 219.408L80.5386 223.52L70.5362 222.563L65.2159 217.91L62.196 212.42L60.5215 207.819L60.8065 201.024L64.6223 193.403L70.1778 189.44L75.2296 187.601L82.771 186.848L82.7964 189.444L84.1513 195.132L82.4866 195.891L79.1508 189.954L75.5011 190.312L70.0884 192.282L65.424 200.518L66.6279 208.457L69.7548 215.083L74.1275 218.957L80.1647 220.948L87.287 217.641L88.111 216.677ZM99.656 183.257L99.0683 178.976L101.147 177.81L113.536 192.201L124.411 203.976L128.528 203.499L128.959 205.385L123.292 206.937L116.601 209.883L116.034 208.046L119.404 205.798L113.128 198.377L107.604 200.183L102.483 202.251L102.67 211.889L106.427 211.543L106.858 213.429L101.191 214.981L97.2054 216.943L96.6389 215.105L99.8288 212.923L100.111 197.138L99.656 183.257ZM101.539 184.359L102.392 199.475L106.833 198.063L111.323 196.225L105.809 190.058L101.629 184.327L101.539 184.359ZM130.661 197.206L124.015 173.472L119.988 173.916L119.639 172.255L125.224 170.478L128.155 169.41L128.484 170.313L141.906 185.297L146.087 190.467L146.177 190.435L145.945 184.185L146.571 163.729L146.243 162.827L148.949 161.842L155.046 159.368L155.531 160.979L152.115 163.244L162.308 185.074L164.795 189.379L168.158 189.075L168.507 190.736L162.922 192.513L156.824 194.988L156.34 193.376L159.308 191.427L157.917 187.183L155.048 180.565L148.86 167.493L148.635 167.575L148.879 173.718L148.454 195.429L149.931 197.241L148.095 198.931L146.466 197.123L130.787 180.15L127.075 175.423L126.894 175.488L131.25 190.402L133.22 196.377L134.738 200.268L138.359 199.972L138.708 201.632L133.874 203.085L129.13 205.068L128.645 203.456L131.429 201.421L130.661 197.206ZM173.741 171.719L178.895 184.758L191.816 179.698L190.985 173.206L192.712 173.038L194.928 178.565L196.147 180.931L190.525 182.466L177.264 187.293L171.248 189.993L170.764 188.382L173.962 185.941L169.373 171.929L164.112 158.877L160.064 159.125L159.715 157.464L165.546 155.801L178.537 151.073L182.748 149.03L183.146 151.388L185.207 157.329L183.714 158.281L180.358 152.709L168.635 156.567L172.887 169.373L181.584 165.901L180.881 161.304L182.899 161.234L184.319 166.54L186.757 171.834L184.854 172.22L182.372 168.066L173.741 171.719Z" fill="black"/>
<path d="M84 390C84 378.954 92.9543 370 104 370C115.046 370 124 378.954 124 390V430H84V390Z" fill="#E62626"/>
<g filter="url(#filter6_d)">
<circle cx="312" cy="369" r="15" fill="#E4D658"/>
</g>
<defs>
<filter id="filter0_d" x="426" y="334" width="158" height="64" filterUnits="userSpaceOnUse" color-interpolation-filters="sRGB">
<feFlood flood-opacity="0" result="BackgroundImageFix"/>
<feColorMatrix in="SourceAlpha" type="matrix" values="0 0 0 0 0 0 0 0 0 0 0 0 0 0 0 0 0 0 127 0"/>
<feOffset dy="4"/>
<feGaussianBlur stdDeviation="2"/>
<feColorMatrix type="matrix" values="0 0 0 0 0 0 0 0 0 0 0 0 0 0 0 0 0 0 0.25 0"/>
<feBlend mode="normal" in2="BackgroundImageFix" result="effect1_dropShadow"/>
<feBlend mode="normal" in="SourceGraphic" in2="effect1_dropShadow" result="shape"/>
</filter>
<filter id="filter1_d" x="426" y="249" width="158" height="64" filterUnits="userSpaceOnUse" color-interpolation-filters="sRGB">
<feFlood flood-opacity="0" result="BackgroundImageFix"/>
<feColorMatrix in="SourceAlpha" type="matrix" values="0 0 0 0 0 0 0 0 0 0 0 0 0 0 0 0 0 0 127 0"/>
<feOffset dy="4"/>
<feGaussianBlur stdDeviation="2"/>
<feColorMatrix type="matrix" values="0 0 0 0 0 0 0 0 0 0 0 0 0 0 0 0 0 0 0.25 0"/>
<feBlend mode="normal" in2="BackgroundImageFix" result="effect1_dropShadow"/>
<feBlend mode="normal" in="SourceGraphic" in2="effect1_dropShadow" result="shape"/>
</filter>
<filter id="filter2_d" x="60" y="265" width="88" height="88" filterUnits="userSpaceOnUse" color-interpolation-filters="sRGB">
<feFlood flood-opacity="0" result="BackgroundImageFix"/>
<feColorMatrix in="SourceAlpha" type="matrix" values="0 0 0 0 0 0 0 0 0 0 0 0 0 0 0 0 0 0 127 0"/>
<feOffset dy="4"/>
<feGaussianBlur stdDeviation="2"/>
<feColorMatrix type="matrix" values="0 0 0 0 0 0 0 0 0 0 0 0 0 0 0 0 0 0 0.25 0"/>
<feBlend mode="normal" in2="BackgroundImageFix" result="effect1_dropShadow"/>
<feBlend mode="normal" in="SourceGraphic" in2="effect1_dropShadow" result="shape"/>
</filter>
<filter id="filter3_d" x="342" y="48" width="48" height="48" filterUnits="userSpaceOnUse" color-interpolation-filters="sRGB">
<feFlood flood-opacity="0" result="BackgroundImageFix"/>
<feColorMatrix in="SourceAlpha" type="matrix" values="0 0 0 0 0 0 0 0 0 0 0 0 0 0 0 0 0 0 127 0"/>
<feOffset dy="4"/>
<feGaussianBlur stdDeviation="2"/>
<feColorMatrix type="matrix" values="0 0 0 0 0 0 0 0 0 0 0 0 0 0 0 0 0 0 0.25 0"/>
<feBlend mode="normal" in2="BackgroundImageFix" result="effect1_dropShadow"/>
<feBlend mode="normal" in="SourceGraphic" in2="effect1_dropShadow" result="shape"/>
</filter>
<filter id="filter4_d" x="391" y="135" width="28" height="28" filterUnits="userSpaceOnUse" color-interpolation-filters="sRGB">
<feFlood flood-opacity="0" result="BackgroundImageFix"/>
<feColorMatrix in="SourceAlpha" type="matrix" values="0 0 0 0 0 0 0 0 0 0 0 0 0 0 0 0 0 0 127 0"/>
<feOffset dy="4"/>
<feGaussianBlur stdDeviation="2"/>
<feColorMatrix type="matrix" values="0 0 0 0 0 0 0 0 0 0 0 0 0 0 0 0 0 0 0.25 0"/>
<feBlend mode="normal" in2="BackgroundImageFix" result="effect1_dropShadow"/>
<feBlend mode="normal" in="SourceGraphic" in2="effect1_dropShadow" result="shape"/>
</filter>
<filter id="filter5_d" x="440" y="30" width="168" height="168" filterUnits="userSpaceOnUse" color-interpolation-filters="sRGB">
<feFlood flood-opacity="0" result="BackgroundImageFix"/>
<feColorMatrix in="SourceAlpha" type="matrix" values="0 0 0 0 0 0 0 0 0 0 0 0 0 0 0 0 0 0 127 0"/>
<feOffset dy="4"/>
<feGaussianBlur stdDeviation="2"/>
<feColorMatrix type="matrix" values="0 0 0 0 0 0 0 0 0 0 0 0 0 0 0 0 0 0 0.25 0"/>
<feBlend mode="normal" in2="BackgroundImageFix" result="effect1_dropShadow"/>
<feBlend mode="normal" in="SourceGraphic" in2="effect1_dropShadow" result="shape"/>
</filter>
<filter id="filter6_d" x="293" y="354" width="38" height="38" filterUnits="userSpaceOnUse" color-interpolation-filters="sRGB">
<feFlood flood-opacity="0" result="BackgroundImageFix"/>
<feColorMatrix in="SourceAlpha" type="matrix" values="0 0 0 0 0 0 0 0 0 0 0 0 0 0 0 0 0 0 127 0"/>
<feOffset dy="4"/>
<feGaussianBlur stdDeviation="2"/>
<feColorMatrix type="matrix" values="0 0 0 0 0 0 0 0 0 0 0 0 0 0 0 0 0 0 0.25 0"/>
<feBlend mode="normal" in2="BackgroundImageFix" result="effect1_dropShadow"/>
<feBlend mode="normal" in="SourceGraphic" in2="effect1_dropShadow" result="shape"/>
</filter>
</defs>
</svg>
