<svg width="150" height="64" viewBox="0 0 159 64" fill="none" xmlns="http://www.w3.org/2000/svg">
<g filter="url(#filter0_d)">
<rect x="4" width="150" height="56" rx="20" fill="#C4C4C4"/>
<path d="M70.1055 28.3496C70.1055 29.7233 69.8874 30.9082 69.4512 31.9043C69.015 32.8939 68.403 33.6686 67.6152 34.2285L70.1543 36.2207L68.875 37.4023L65.877 35.0195C65.4082 35.1367 64.9134 35.1953 64.3926 35.1953C63.2728 35.1953 62.2799 34.9219 61.4141 34.375C60.5482 33.8216 59.8743 33.0371 59.3926 32.0215C58.9173 30.9993 58.6732 29.8177 58.6602 28.4766V27.4512C58.6602 26.084 58.8978 24.8763 59.373 23.8281C59.8483 22.7799 60.5189 21.9792 61.3848 21.4258C62.2572 20.8659 63.2533 20.5859 64.373 20.5859C65.5189 20.5859 66.5247 20.8626 67.3906 21.416C68.263 21.9694 68.9336 22.7669 69.4023 23.8086C69.8711 24.8438 70.1055 26.0547 70.1055 27.4414V28.3496ZM68.2305 27.4316C68.2305 25.7585 67.8952 24.4694 67.2246 23.5645C66.5605 22.653 65.61 22.1973 64.373 22.1973C63.1947 22.1973 62.2637 22.6497 61.5801 23.5547C60.903 24.4531 60.5547 25.7031 60.5352 27.3047V28.3496C60.5352 29.9772 60.8737 31.2598 61.5508 32.1973C62.2344 33.1348 63.1816 33.6035 64.3926 33.6035C65.6035 33.6035 66.541 33.1641 67.2051 32.2852C67.8691 31.3997 68.2109 30.1335 68.2305 28.4863V27.4316ZM83.0059 20.7812V30.4492C82.9993 31.7904 82.5762 32.8874 81.7363 33.7402C80.903 34.5931 79.7702 35.0716 78.3379 35.1758L77.8398 35.1953C76.2839 35.1953 75.0436 34.7754 74.1191 33.9355C73.1947 33.0957 72.7259 31.9401 72.7129 30.4688V20.7812H74.5684V30.4102C74.5684 31.4388 74.8516 32.2396 75.418 32.8125C75.9844 33.3789 76.7917 33.6621 77.8398 33.6621C78.901 33.6621 79.7116 33.3789 80.2715 32.8125C80.8379 32.2461 81.1211 31.4486 81.1211 30.4199V20.7812H83.0059ZM87.9766 35H86.1016V20.7812H87.9766V35ZM100.945 22.3242H96.375V35H94.5098V22.3242H89.9492V20.7812H100.945V22.3242Z" fill="#FEE500"/>
</g>
<defs>
<filter id="filter0_d" x="0" y="0" width="159" height="64" filterUnits="userSpaceOnUse" color-interpolation-filters="sRGB">
<feFlood flood-opacity="0" result="BackgroundImageFix"/>
<feColorMatrix in="SourceAlpha" type="matrix" values="0 0 0 0 0 0 0 0 0 0 0 0 0 0 0 0 0 0 127 0"/>
<feOffset dy="4"/>
<feGaussianBlur stdDeviation="2"/>
<feColorMatrix type="matrix" values="0 0 0 0 0 0 0 0 0 0 0 0 0 0 0 0 0 0 0.25 0"/>
<feBlend mode="normal" in2="BackgroundImageFix" result="effect1_dropShadow"/>
<feBlend mode="normal" in="SourceGraphic" in2="effect1_dropShadow" result="shape"/>
</filter>
</defs>
</svg>
